<?xml version="1.0" encoding="utf-8"?>
<svg version="1.1" id="Layer_1" xmlns="http://www.w3.org/2000/svg" xmlns:xlink="http://www.w3.org/1999/xlink" x="0px" y="0px"
	 viewBox="0 0 749.504 1647.811" enable-background="new 0 0 749.504 1647.811" xml:space="preserve">
<g>
	<path stroke="#000000" stroke-width="0.5" d="M371.016,25.034c15.767-2.048,32.075-1.479,47.368,3.129
		c18.318,5.49,34.948,16.905,46.126,32.473c11.093,15.492,14.108,36.009,8.903,54.232c30.16,8.628,59.219,21.209,85.852,37.83
		c36.967,23.153,69.924,52.772,96.651,87.255c29.752,38.048,50.516,83.074,59.855,130.48c8.59,44.969,8.571,91.607-0.531,136.5
		c-0.379,2.901-2.029,6.011-0.588,8.855c6.826,14.411,8.874,30.662,8.334,46.477c-0.569,16.535-6.229,32.814-15.957,46.192
		c-8.391,11.87-19.986,21.247-32.938,27.732c-12.913,6.476-26.765,10.979-40.835,14.165c-3.527,8.305-7.879,16.327-13.786,23.2
		c-10.173,11.776-22.575,21.513-35.924,29.439c-16.156,9.187-33.459,16.279-51.17,21.845c-16.459,5.262-33.45,8.438-50.298,12.155
		c16.63,5.935,32.445,14.08,46.761,24.443c26.452,19.01,48.866,43.12,68.596,68.909c20.432,26.415,38.039,54.896,54.299,84.032
		c21.409,38.826,40.115,79.083,57.456,119.871c1.223,2.721,0,5.66-0.54,8.391c-4.921,20.46-13.368,40.257-26.339,56.944
		c10.496,14.459,20.024,29.951,25.504,47.064c5.072,15.464,5.148,33.459-3.802,47.558c-3.954,6.902-10.211,11.937-16.023,17.17
		c-2.494,6.732-4.797,14.042-10.581,18.782c-3.584,3.451-8.543,4.466-13.122,5.888c-3.821,4.352-6.826,9.737-12.193,12.468
		c-4.703,2.93-10.41,2.617-15.701,2.095c-1.508,2.02-4.333,3.669-3.745,6.58c1.441,23.665,2.361,47.434,0.73,71.109
		c-0.929,10.382-1.583,20.868-4.02,31.022c-5.499,14.61-17.521,27.505-32.947,31.468c-9.728,2.38-20.337,1.555-29.382-2.873
		c-5.404-2.456-9.803-6.514-14.08-10.524c-0.427,18.403-1.346,36.806-2.019,55.209c-0.038,6.599-4.722,11.823-6.542,17.929
		c0.142,1.128,1.413,1.621,2.133,2.427c7.651,6.001,14.971,13.387,17.796,22.954c1.991,6.381,0.484,13.103-1.024,19.417
		c-0.939,3.736-2.816,7.149-4.93,10.354c11.112,11.311,19.579,25.428,23.513,40.835c2.74,10.42,4.323,21.456,2.285,32.16
		c-1.754,9.311-6.618,18.052-13.852,24.205c-10.562,9.045-24.073,13.691-37.479,16.573c-21.19,4.418-42.969,4.76-64.529,4.295
		c-18.735-0.863-37.318-5.11-54.564-12.468c-15.947-6.314-29.723-18.697-36.417-34.625c-7.414-17.341-7.519-36.815-4.959-55.209
		c0.55-4.987,1.963-9.823,2.55-14.781c-1.432-3.584-4.447-6.466-5.442-10.297c-2.427-8.675-1.839-18.46,2.531-26.434
		c2.882-5.328,7.519-9.405,12.401-12.866c-3.66-4.665-7.594-9.102-11.216-13.795c-1.583-1.944-1.479-4.551-1.688-6.874
		c-2.892-49.018-3.025-98.225-0.076-147.243c-4.447-0.01-8.874-0.019-13.312-0.066c-0.009,42.447,0,84.904,0,127.351
		c-0.237,7.433,0.484,14.942-0.332,22.338c-2.92,4.93-7.5,8.685-11.036,13.198c6.959,5.565,13.833,11.814,17.607,20.062
		c2.114,4.447,2.901,9.481,2.228,14.383c-0.768,5.452-1.801,11.15-5.101,15.729c-1.972,2.844-4.902,4.778-7.367,7.158
		c1.735,16.346,2.238,33.26-2.664,49.16c-4.105,13.966-12.515,26.661-23.978,35.678c-8.988,7.177-19.361,12.534-30.245,16.165
		c-18.725,5.072-37.944,8.542-57.333,9.642c-26.68,1.1-54.403-3.1-77.651-16.905c-9.955-5.518-17.938-15.113-20.11-26.434
		c-2.958-14.857,2.38-29.837,9.424-42.751c6.656-10.856,13.634-21.674,22.499-30.88c-4.921-7.661-5.499-17.303-3.432-25.978
		c1.925-7.651,7.082-14.146,13.511-18.574c0.91-0.882,2.768-1.441,2.275-3.025c-1.536-8.903-4.466-17.559-5.063-26.614
		c-7.348-60.755-6.978-122.374,0.332-183.11c-6.115-4.57-12.97-8.125-19.067-12.752c-5.016-3.195-9.102-7.945-14.904-9.766
		c-0.114,7.083-0.351,14.715-4.475,20.792c-2.939,4.551-7.5,9.102-13.397,8.571c-5.859,0.284-10.325-4.153-13.824-8.277
		c-4.959,0.161-10.183,0.275-14.658-2.19c-5.49-2.522-9.244-7.386-12.781-12.07c-2.721-1.195-5.746-1.479-8.429-2.74
		c-7.424-3.29-12.582-10.221-15.682-17.521c-1.384-2.977-1.811-6.627-4.636-8.675c-6.997-5.935-12.724-13.492-15.758-22.195
		c-4.674-13.293-2.939-27.96,1.545-41.054c5.091-14.724,13.037-28.292,22.139-40.873c-10.704-13.463-19.683-28.282-26.898-43.879
		c-1.441-2.408,0.019-4.959,0.901-7.244c21.873-53.891,46.42-106.872,76.513-156.705c8.495-13.795,17.208-27.467,26.699-40.608
		c13.482-18.242,27.391-36.256,43.348-52.431c23.428-23.987,50.269-45.197,81.045-58.935c-28.804-5.253-57.579-12.136-84.269-24.443
		c-22.992-10.619-45.358-25.428-58.745-47.491c-3.404-5.319-6.314-10.932-9.045-16.611c-18.043-4.532-36.095-10.638-51.407-21.484
		c-12.487-8.742-22.347-21.039-28.728-34.843c-9.017-19.673-9.026-42.428-4.143-63.192c0.654-3.925,3.404-7.623,2.531-11.69
		c-9.585-39.337-11.14-80.381-6.864-120.553c4.048-36.18,14.392-71.63,30.7-104.189c16.099-32.35,38.048-61.675,63.676-87.085
		c24.367-24.613,52.146-45.917,82.591-62.49c28.671-15.454,59.532-27.069,91.503-33.45c0.977-0.256,1.934-0.607,2.863-1.052
		c0.455-4.598-0.626-9.197-0.341-13.814c0.047-14.696,5.992-29.088,15.777-39.982C329.593,38.544,349.769,28.049,371.016,25.034
		 M378.184,35.918c-13.482,8.144-26.339,19.171-31.933,34.341c-4.105,10.486-3.29,22.186-0.085,32.795
		c15.141-1.564,30.378-0.654,45.567-0.815c10.069,0.465,20.11,1.432,30.131,2.484l0.758-0.294
		c3.423-12.923,4.589-26.803,0.815-39.783c-3.309-11.046-9.813-21.181-18.431-28.804c-5.139-1.185-10.486-1.432-15.748-1.47
		C385.551,34.572,381.379,33.51,378.184,35.918 M320.681,64.703c-9.32,11.842-12.439,27.818-9.747,42.504
		c8.173-1.403,16.365-2.759,24.642-3.375c-4.086-13.435-4.238-28.453,1.868-41.309c3.707-8.618,10.145-15.568,16.564-22.243
		C340.97,45.181,329.252,53.724,320.681,64.703 M424.111,41.36c2.873,4.816,5.84,9.614,7.784,14.914
		c6.201,15.938,5.29,33.772,1.033,50.08c10.23,1.555,20.375,3.631,30.463,5.935c4.323-15.179,1.925-32.236-7.12-45.254
		C448.326,55.61,436.853,46.812,424.111,41.36 M307.672,118.12c-2.816,0.199-3.973,3.043-5.338,5.082
		c-5.499,9.339-10.23,20.005-9.007,31.098c1.242,9.908,8.467,17.882,16.677,22.954c12.496,7.632,27.306,11.302,41.916,10.666
		c13.662-0.503,26.936-4.646,39.442-9.946c12.819-5.793,25.334-12.572,36.104-21.693c11.785-9.889,21.854-21.721,30.245-34.587
		c-27.78-6.476-56.394-9.652-84.923-9.073c-7.955-0.152-15.928-0.18-23.845,0.664C335.111,114.109,321.297,115.579,307.672,118.12
		 M217.677,148.469c-31.61,16.042-60.262,37.583-85.321,62.595c-11.387,11.339-22.575,23.039-31.933,36.123
		c-3.963,4.418-7.196,9.415-10.59,14.26c-10.259,14.942-19.351,30.71-26.557,47.349c-18.137,40.105-26.661,84.307-26.396,128.242
		c-0.218,22.859,2.048,45.785,6.722,68.16c8.381-11.643,19.427-22.622,33.943-25.741c4.902-45.225,16.251-89.948,35.45-131.276
		c14.667-30.918,34.274-59.551,58.319-83.937c7.613-8.049,16.289-14.961,24.367-22.499c2.323-1.233,4.229-3.091,6.333-4.627
		c13.35-10.429,27.856-19.256,42.618-27.514c18.318-10.126,37.763-18.052,57.446-25.078c-8.742-6.021-16.412-14.62-18.545-25.305
		c-2.892-13.018,1.356-26.443,7.803-37.726C265.775,127.317,241.067,136.665,217.677,148.469 M468.378,124.311
		c-14.004,22.613-32.928,42.665-56.612,55.199c-17.218,9.462-35.848,17.208-55.588,19.029c-16.914,1.46-34.341-2.257-48.98-10.932
		c-1.583-0.815-3.318-2.446-5.158-1.271c-23.134,9.254-45.614,20.347-66.425,34.094c-10.297,6.807-20.603,13.776-29.752,22.082
		c-13.511,10.799-25.846,23.077-37.043,36.256c-31.971,37.128-54.1,82.079-67.193,129.124
		c-6.286,23.163-10.884,46.761-13.615,70.606c5.253,1.138,10.069,3.622,14.345,6.836c1.877,1.82,4.56,0.939,6.665,0.066
		c62.822-25.4,122.099-60.054,173.752-104.027c27.846-23.864,53.787-49.956,77.3-78.096c10.107-12.278,20.185-24.651,29.174-37.764
		c0.37-0.228,1.109-0.683,1.489-0.901c-3.413,5.376-7.31,10.429-10.628,15.843c-5.907,7.737-11.33,15.843-17.379,23.475
		c-9.036,11.482-18.138,22.944-27.723,33.99c-12.534,13.975-25.429,27.647-39.129,40.475
		c-13.634,12.657-27.448,25.163-42.352,36.332c-13.814,10.714-28.083,20.83-42.893,30.112
		c-17.436,11.52-35.877,21.418-54.526,30.823c-6.049,3.11-12.401,5.603-18.375,8.836c52.725-3.574,105.393-11.046,156.345-25.353
		c31.506-9.197,62.557-20.631,91.124-36.958c25.903-14.734,50.184-32.824,69.924-55.256c7.85-9.092,15.502-18.479,21.598-28.851
		c3.527-4.494,5.85-9.775,8.941-14.554c1.138-1.801,3.413-1.896,5.3-1.422c7.225,1.773,13.909,5.139,20.716,8.031
		c29.193,15.909,53.351,39.555,74.048,65.287c21.532,26.348,39.84,55.124,56.868,84.515c-1.413-26.329-5.765-52.516-13.454-77.755
		c-12.496-41.812-34.436-80.457-62.064-114.106c-5.224-6.201-10.297-12.6-16.251-18.128c-2.617-3.413-5.964-6.172-8.618-9.538
		c8.315,6.106,15.085,14.013,22.651,20.972c8.732,9.718,17.654,19.285,25.599,29.686c25.922,33.023,45.007,71.545,54.555,112.485
		c4.589,19.124,6.94,38.712,8.154,58.319c9.68-3.015,20.394-2.816,29.723,1.318c9.159,3.859,16.592,10.818,22.831,18.403
		c11.984-63.116,6.552-130.034-18.868-189.292c-12.942-29.439-30.321-57.058-51.767-81.064c-6.267-7.831-13.52-14.838-20.593-21.93
		c-19.105-18.536-40.03-35.26-62.784-49.094C525.796,144.402,497.628,132.379,468.378,124.311 M484.487,345.905
		c-9.68,14.136-20.252,27.704-32.483,39.745c-20.309,20.185-44.144,36.607-69.393,50.004
		c-29.676,16.014-61.685,27.268-94.233,35.858c-42.248,11.396-85.662,17.872-129.19,21.807c-17.417,1.735-34.919,2.275-52.346,3.755
		c-2.048,39.043-0.977,78.76,9.159,116.732c5.167,18.469,12.468,36.597,23.627,52.298c13.7,17.294,32.881,29.335,52.81,38.257
		c25.391,11.121,52.478,17.796,79.718,22.508c11.406,1.858,22.812,3.963,34.35,4.816c22.84,3.024,45.879,4.418,68.89,5.347
		c33.971-1.289,67.942-4.181,101.458-10.041c22.233-3.849,44.353-8.884,65.543-16.744c18.45-6.807,36.512-15.359,52.052-27.562
		c10.306-8.305,20.489-17.597,26.14-29.818c8.419-17.502,12.544-36.721,15.341-55.835c2.92-23.674,4.902-47.539,4.864-71.403
		c0.389-9.121,0.588-18.28,0.123-27.391c-6.798-12.515-14.004-24.812-21.494-36.929c-19-30.435-39.84-60.025-65.221-85.53
		c-17.919-17.72-38.276-33.838-62.187-42.542C489.645,337.543,486.734,341.544,484.487,345.905 M60.299,501.188
		c-10.183,10.23-16.554,23.931-18.744,38.124c-2.133,14.023-2.029,28.681,2.541,42.229c4.371,12.591,12.041,24.101,22.214,32.739
		c13.16,11.169,29.562,17.55,45.965,22.29c-3.148-8.713-6.011-17.55-8.068-26.595c-3.328-0.066-6.542-0.967-9.68-2.001
		c-11.197-3.527-22.082-9.756-28.624-19.787c-8.732-12.022-10.183-27.903-7.026-42.096c2.048-9.074,7.101-17.597,14.487-23.324
		c6.21-4.797,14.847-6.191,22.158-3.148c0.047-8.543,0.569-17.057,1.024-25.571c-3.527-3.195-8.334-5.537-13.198-4.921
		C74.549,490.303,66.471,494.911,60.299,501.188 M651.346,493.811c0.123,8.789,0.114,17.597-0.057,26.396
		c8.182-2.712,17.332-2.01,25.059,1.754c7.945,4.352,13.331,12.326,16.365,20.678c5.12,15.777,3.773,34.36-6.504,47.833
		c-9.671,13.691-26.775,18.706-42.333,22.186c-1.745,8.751-3.84,17.436-6.428,25.978c21.883-5.878,44.562-14.895,58.963-33.25
		c10.79-13.463,16.497-30.7,16.327-47.918c-0.218-13.767-2.351-27.903-9.045-40.124c-6.618-12.278-17.36-23.523-31.477-26.471
		C665.16,488.929,657.85,490.977,651.346,493.811 M69.818,545.74c-3.641,12.326-2.806,26.708,5.072,37.289
		c6.4,8.884,16.848,13.463,27.069,16.374c-4.579-22.698-6.258-45.889-6.457-69.013c-3.925-0.702-7.945-2.949-11.927-1.346
		C76.502,531.802,72.122,538.8,69.818,545.74 M651.289,531.234c-0.853,23.542-1.991,47.131-5.641,70.426
		c8.381-2.152,16.753-4.94,24.035-9.728c6.343-4.181,10.875-10.714,13.406-17.815c2.74-7.907,2.531-16.564,0.721-24.651
		c-1.612-6.751-5.12-13.359-10.932-17.37C666.478,527.953,658.059,528,651.289,531.234 M268.098,749.386
		c4.902,11.226,10.695,22.025,15.976,33.08c16.962,34.35,34.274,68.52,52.203,102.378c33.971,63.42,69.345,126.157,107.981,186.865
		c39.802,62.272,82.581,122.905,132.025,177.943c3.318,3.622,6.305,7.737,10.591,10.325c2.617,1.659,6.134,2.133,8.931,0.597
		c2.2-1.138,3.167-3.868,2.702-6.21c-0.806-5.063-4.285-9.055-7.471-12.838c-6.912-8.249-13.748-16.573-20.536-24.926
		c-22.821-28.842-45.32-57.958-66.605-87.957c-21.484-29.714-41.717-60.3-61.343-91.266c-18.612-29.685-36.844-59.627-53.882-90.251
		c-18.346-32.881-35.877-66.207-52.621-99.932c-17.407-34.673-33.146-70.151-48.733-105.668
		C280.822,743.925,274.412,746.551,268.098,749.386 M298.912,741.479c15.018,35.45,31.288,70.369,48.487,104.814
		c5.983-15.777,10.211-32.245,12.989-48.857c-1.963-2.531-5.205-3.783-7.424-6.106c-8.192-7.376-11.273-19.332-8.713-29.923
		c1.195-5.84,4.741-10.78,8.59-15.179C334.817,745.3,316.822,743.697,298.912,741.479 M396.208,746.267
		c7.737,7.547,11.396,19.01,8.742,29.581c-1.574,7.907-7.007,14.241-13.188,19.086c0.057,9.31,2.114,18.583,3.755,27.761
		c1.65,7.026,2.693,14.326,5.556,20.991c1.46,7.604,4.598,14.753,7.547,21.883c7.329,16.725,17.445,32.501,31.127,44.761
		c24.812,22.489,59.428,31.383,92.328,29.913c0.74,0.142,2.2,0.417,2.93,0.559c-1.953-17.834-4.456-35.611-5.755-53.502
		c0.559,1.763,1.024,3.574,1.735,5.309c-0.199,2.74-0.038,5.499,0.465,8.211c5.309,33.573,11.633,66.985,18.507,100.273
		c9.576,43.082,20.091,86.117,35.535,127.522c1.65,3.802,2.522,8.087,5.11,11.406c24.253-5.167,48.145-14.762,67.307-30.814
		c14.184-11.851,25.324-27.239,32.511-44.249c2.56-6.684,5.641-13.321,6.457-20.508c1.337-0.986,1.271-3.044,1.782-4.513
		c1.043-3.461-1.432-6.533-2.55-9.633c-23.276-53.834-48.809-106.938-80.694-156.269c-18.308-28.112-38.598-55.171-62.775-78.533
		c-21.371-20.821-46.145-39.053-74.759-48.43c-8.656-2.683-17.569-5.091-26.652-5.537
		C432.938,743.631,414.601,745.546,396.208,746.267 M354.491,763.067c-1.944,7.319,0.133,15.748,5.878,20.849
		c3.717,3.679,8.846,5.509,14.013,5.793c10.05,0,19.56-7.85,20.764-17.938c1.953-11.245-7.414-23.485-19.057-23.362
		C366.532,747.006,357.003,753.918,354.491,763.067 M192.144,807.468c-12.25,12.544-22.888,26.528-33.525,40.437
		c-10.761,14.146-20.46,29.069-29.818,44.163c-11.463,18.346-21.503,37.508-31.677,56.584
		c-16.725,32.748-31.743,66.368-45.491,100.472c-0.977,1.745,0.313,3.65,1.403,5.025c5.821,12.79,13.596,24.642,22.186,35.734
		c9.377,11.776,20.337,22.385,32.966,30.624c16.023,10.59,34.815,16.772,53.919,18.403c25.353-71.773,43.31-146.133,53.559-221.556
		c0.872-8.201,2.702-16.346,2.541-24.623c0.521-1.403,0.787-2.863,1.128-4.295c0.246,1.062,0.54,2.133,0.872,3.205
		c-0.702,3.593-1.071,7.263-1.233,10.932c-0.645,12.894-1.697,25.76-2.873,38.617c17.104-0.54,34.407-2.93,50.449-9.073
		c24.054-7.841,44.723-24.471,59.561-44.78c-23.229-43.936-45.832-88.203-67.297-133.021
		C233.748,768.054,211.685,786.723,192.144,807.468 M370.618,799.94c-3.878,20.128-8.96,40.153-17.066,59.039
		c30.709,60.348,64.026,119.396,100.263,176.606c39.565,62.111,82.59,122.023,128.944,179.242
		c-1.697-8.941-0.597-18.043,0.332-27.002c-11.036-0.977-21.759-6.049-28.832-14.686c-11.994-14.156-16.526-32.814-19.342-50.734
		c-1.356-9.377-2.37-18.849-2.389-28.33c-0.085-2.74,2.693-4.096,4.978-4.608c7.756-1.991,15.559-3.84,23.314-5.84
		c-2.768-9.946-4.418-20.204-7.367-30.084c-1.27-9.946-3.868-19.664-5.547-29.543c-4.485-24.253-8.201-48.648-11.415-73.09
		c-9.775-0.047-19.598,0.398-29.316-0.901c-9.32-0.863-18.403-3.129-27.562-4.873c-1.602-1.081-3.508-1.507-5.281-2.143
		c-10.202-3.224-19.863-8.031-28.766-13.928c-22.167-14.791-38.37-37.327-48.022-61.959c-8.647-21.617-13.852-44.552-16.052-67.705
		C377.89,799.873,374.249,799.978,370.618,799.94 M293.318,931.415c-15.615,9.168-33.089,15.018-50.971,17.758
		c-9.036,1.441-18.166,2.238-27.306,2.465c-2.541,21.096-5.262,42.172-9.083,63.078c-4.02,21.816-9.017,43.452-14.563,64.927
		c8.002,2.854,16.042,5.632,24.044,8.514c2.541,0.73,4.295,3.186,3.935,5.869c-0.929,17.237-3.006,34.464-6.988,51.274
		c-3.47,13.643-8.685,27.856-19.797,37.147c-6.096,5.281-14.392,7.035-22.281,6.362c0.427,7.092,1.261,14.478-1.09,21.352
		c-1.27,3.849-3.783,7.101-6.343,10.192c30.567,23.001,66.207,38.977,103.449,47.491c10.353,2.55,20.868,4.418,31.421,5.954
		c23.855,3.11,47.889,5.006,71.962,4.997c26.974-0.009,53.9-2.465,80.505-6.845c19.759-3.423,39.688-6.542,58.726-13.056
		c15.198-5.063,29.667-12.25,43.026-21.077c-62.803-74.209-115.727-156.136-164.764-239.902
		c-19.285-33.051-37.574-66.662-55.74-100.33C320.946,911.049,308.052,922.711,293.318,931.415 M188.636,1089.855
		c-5.272,18.517-11.159,36.853-17.493,55.038c-0.758,2.551-3.081,4.02-5.101,5.518c1.014,9.225,1.963,18.46,3.11,27.685
		c4.494,0.123,9.263,0.332,13.34-1.925c8.429-4.304,12.932-13.302,16.213-21.74c6.637-18.441,8.571-38.143,10.031-57.56
		C202.033,1094.529,195.406,1091.979,188.636,1089.855 M543.109,1098.853c0.247,9.737,1.536,19.427,3.423,28.974
		c2.835,13.662,7.054,27.761,16.554,38.38c5.366,6.106,12.98,9.775,20.934,11.083c0.977-8.41,2.048-16.801,2.987-25.201
		c-2.484-1.375-4.883-3.138-5.765-5.964c-7.016-16.971-12.733-34.474-17.54-52.194
		C556.762,1095.269,549.964,1097.184,543.109,1098.853 M70.434,1111.434c-9.604,15.009-18.318,31.752-18.64,49.966
		c-0.341,9.633,3.356,19.038,9.415,26.433c0.616-7.462,1.773-14.895,3.679-22.129c2.057,13.283,3.792,26.822,8.874,39.375
		c2.143,5.328,5.926,9.974,10.979,12.79c-2.171-15.369-1.403-31.07,0.891-46.372c1.707,16.497,3.318,33.421,9.898,48.847
		c2.588,6.409,7.651,12.25,14.715,13.653c-3.413-12.8-2.863-26.215-1.64-39.271c0.446-3.963,0.825-7.936,1.773-11.804
		c1.47,15.521,3.537,31.193,8.912,45.917c1.868,5.148,4.741,10.486,9.794,13.093c3.631,0.389,5.859-3.887,6.969-6.826
		c4.494-21.56,3.072-43.737,3.508-65.61c6.95,11.709,6.39,25.902,7.689,39.006c0.901,2.095,2.38,4.153,4.579,5.034
		c2.569,0.616,4.504-1.612,5.821-3.489c3.413-5.385,2.882-12.098,2.408-18.176c-1.375-14.43-2.968-28.842-4.665-43.225
		c-13.805-1.716-27.382-5.537-39.84-11.766c-15.559-7.756-29.392-18.773-40.911-31.753
		C73.269,1107.244,71.876,1109.358,70.434,1111.434 M645.316,1130.833c-14.791,8.543-31.032,14.307-47.576,18.365
		c-1.754,17.341-4.238,34.616-5.376,52.014c-0.332,5.205-0.237,10.875,2.882,15.322c1.27,1.659,3.062,3.726,5.423,3.318
		c2.475-1.09,4.513-3.584,4.646-6.343c0.891-12.525,2.901-24.973,5.755-37.185c0.948,18.09,1.337,36.246,3.451,54.251
		c1.062,5.954,1.166,13.131,6.561,17.028c1.726,1.564,3.707-0.171,5.139-1.28c5.234-4.352,7.158-11.159,9.159-17.388
		c3.65-12.145,5.215-24.774,6.533-37.346c1.062,6.078,0.863,12.278,1.195,18.431c0.521,10.173,0.531,20.47-1.289,30.539
		c2.503-0.54,5.158-1.033,7.187-2.74c5.641-4.485,8.353-11.472,10.467-18.137c2.939-9.851,4.731-20.024,6.049-30.198
		c0.844-3.821,0.929-7.756,1.811-11.548c2.228,15.142,3.138,30.7,0.872,45.908c5.727-3.186,9.453-8.874,11.586-14.923
		c4.153-12.117,6.087-24.822,8.362-37.365c2.039,7.651,2.294,15.597,2.19,23.475c8.4-9.187,11.965-22.148,10.031-34.388
		c-3.129-19.673-13.729-37.081-25.068-53.066C666.601,1116.848,656.21,1124.357,645.316,1130.833 M595.189,1230.025
		c3.726,4.409,7.32,8.931,10.818,13.53c-0.284-4.561-0.768-9.093-1.109-13.634C601.665,1230.167,598.422,1230.205,595.189,1230.025
		 M550.874,1250.751c1.65,35.308,2.987,70.663,2.484,106.019c-0.095,4.304,2.892,7.718,5.376,10.922
		c5.025,6.333,11.88,11.539,19.901,13.264c7.329,1.384,15.236,0.73,21.873-2.882c7.386-3.84,12.828-10.458,17.019-17.512
		c3.328-6.466,3.508-13.862,4.428-20.916c2.759-26.727,2.057-53.692,0.199-80.448c-5.983-0.91-10.287-5.281-13.615-9.984
		c0.588,4.921,1.299,10.42-1.659,14.8c-2.863,4.162-7.414,7.168-12.269,8.495c-5.338,0.417-10.742-0.967-14.829-4.513
		c-7.898-6.457-14.051-14.724-20.83-22.281C556.269,1247.413,553.576,1249.082,550.874,1250.751 M191.708,1251.272
		c-3.897,31.184-5.404,62.652-5.053,94.063c-0.133,22.603,1.479,45.178,3.394,67.686c1.261,10.259,1.944,20.631,4.456,30.691
		c1.024,5.148,2.74,10.192,3.205,15.454c0.436,3.641-3.66,5.025-6.04,6.826c-7.234,4.143-11.927,12.259-11.823,20.612
		c-0.294,5.793,2.939,11.188,7.158,14.914c4.077,3.489,9.747,4.039,14.885,3.508c8.391-0.493,16.184-3.944,24.414-5.328
		c10.733-2.228,21.683-3.072,32.615-3.555c6.106,0.37,12.24,0.152,18.356,0.559c13.454,0.806,26.813,2.797,40.02,5.461
		c7.196,1.707,14.743,2.105,22.015,0.607c5.3-1.062,10.742-3.499,13.738-8.211c3.432-5.376,4.096-12.468,1.422-18.299
		c-3.726-8.429-11.377-14.089-18.564-19.399c-2.152-1.375-3.006-4.38-1.498-6.523c3.736-5.613,9.348-9.728,12.989-15.397
		c0.882-3.565,0.36-7.291,0.446-10.913c-0.076-45.13,0.047-90.27-0.057-135.401c-4.892-0.123-9.785-0.275-14.658-0.654
		c-22.461-1.963-45.064-3.897-66.956-9.557C240.223,1272.927,215.316,1263.256,191.708,1251.272 M514.182,1267.93
		c-17.407,6.087-35.573,9.434-53.635,12.866c-17.521,3.167-35.204,5.508-52.962,6.845c-8.467,0.977-17.028,0.521-25.485,1.64
		c-1.375,10.401-1.062,20.915-1.858,31.364c-0.55,37.299-0.929,74.645,1.489,111.887c0.19,2.389,0.332,5.006,1.915,6.978
		c3.309,4.523,7.376,8.467,10.628,13.056c1.858,2.531,2.465,5.935,1.583,8.96c-2.598,3.205-6.741,4.57-9.699,7.395
		c-5.916,5.48-9.064,14.089-7.462,22.063c2.162,6.874,9.045,11.406,16.004,12.307c11.529,1.839,22.679-2.484,33.933-4.172
		c8.438-1.536,17.019-1.981,25.533-2.968c3.442,0.038,6.893,0.114,10.353,0.114c22.726-0.446,45.386,2.626,67.639,7.045
		c5.224,0.787,11.027,0.427,15.435-2.797c4.229-3.053,5.926-8.343,6.703-13.274c0.749-4.475-0.142-9.13-2.389-13.046
		c-3.688-6.542-9.529-11.501-15.578-15.777c-1.877-1.441-4.352-3.176-3.878-5.878c1.508-7.376,7.168-13.312,7.974-20.878
		c2.617-49.767,3.603-99.657,1.384-149.471c-0.503-8.41-0.313-16.867-1.318-25.248
		C531.836,1260.867,523.255,1265.039,514.182,1267.93 M240.148,1508.003c-8.675,1.09-17.265,2.835-25.618,5.395
		c-10.96,3.214-23.485,3.812-33.516-2.446c-5.556,5.727-10.183,12.25-14.601,18.877c-7.424,10.78-13.634,23.106-14.146,36.427
		c-0.54,10.865,5.11,21.92,14.573,27.42c7.718,4.494,16.033,7.974,24.613,10.486c7.585,1.877,15.274,4.172,23.181,3.764l0.313,0.597
		c20.735,2.408,41.679-0.133,62.064-4.115c8.704-1.972,17.645-3.517,25.722-7.481c14.516-6.561,27.429-17.445,34.521-31.885
		c7.841-16.099,8.846-34.654,6.826-52.184c-8.372,1.252-17.038,2.038-25.381,0.142
		C292.958,1507.567,266.372,1505.026,240.148,1508.003 M415.483,1512.516c-10.135,2.209-20.925,2.93-30.937-0.247
		c-3.062,14.867-4.523,30.368-1.583,45.386c2.323,12.363,8.068,24.319,17.493,32.833c10.733,10.202,25.144,15.085,39.186,18.744
		c23.324,5.907,47.662,4.75,71.422,2.873c15.502-1.574,31.354-4.352,45.149-11.984c6.845-3.679,12.382-9.728,15.322-16.933
		c3.404-8.125,3.603-17.246,2.219-25.836c-2.674-17.18-11.539-33.127-23.826-45.301c-3.423,0.948-6.874,1.896-10.429,2.02
		c-7.68,0.645-15.047-1.991-22.556-3.072c-11.046-1.782-22.148-3.508-33.345-3.849
		C460.812,1505.614,437.669,1506.913,415.483,1512.516z"/>
	<path fill="#C4F3FF" stroke="#C4F3FF" stroke-width="0.5" d="M378.184,35.918c3.195-2.408,7.367-1.346,11.074-1.545
		c-1.46,3.309-2.987,6.599-4.741,9.766c-6.988,12.458-11.036,26.832-10.041,41.196c0.284,5.499,1.659,10.846,2.977,16.175
		c4.76,0.076,9.519,0.417,14.279,0.73c-15.189,0.161-30.425-0.749-45.567,0.815c-3.205-10.609-4.02-22.309,0.085-32.795
		C351.845,55.089,364.702,44.062,378.184,35.918z"/>
	<path fill="#FFFFFF" stroke="#FFFFFF" stroke-width="0.5" d="M389.258,34.373c5.262,0.038,10.609,0.284,15.748,1.47
		c8.618,7.623,15.122,17.758,18.431,28.804c3.774,12.98,2.607,26.86-0.815,39.783l-0.758,0.294
		c-10.022-1.052-20.062-2.02-30.131-2.484c-4.759-0.313-9.519-0.654-14.279-0.73c-1.318-5.328-2.693-10.676-2.977-16.175
		c-0.996-14.364,3.053-28.737,10.041-41.196C386.271,40.971,387.798,37.681,389.258,34.373z"/>
	<path fill="#00A8D2" stroke="#00A8D2" stroke-width="0.5" d="M320.681,64.703c8.571-10.979,20.29-19.522,33.326-24.424
		c-6.419,6.675-12.856,13.624-16.564,22.243c-6.106,12.856-5.954,27.875-1.868,41.309c-8.277,0.616-16.469,1.972-24.642,3.375
		C308.241,92.521,311.361,76.545,320.681,64.703z"/>
	<path fill="#00CCFF" stroke="#00CCFF" stroke-width="0.5" d="M424.111,41.36c12.743,5.452,24.215,14.25,32.16,25.675
		c9.045,13.018,11.444,30.074,7.12,45.254c-10.088-2.304-20.233-4.38-30.463-5.935c4.257-16.308,5.167-34.142-1.033-50.08
		C429.951,50.974,426.984,46.177,424.111,41.36z"/>
	<path fill="#007795" stroke="#007795" stroke-width="0.5" d="M307.672,118.12c13.624-2.541,27.439-4.011,41.272-4.835
		c7.917-0.844,15.89-0.815,23.845-0.664c-9.984,9.462-20.517,18.735-27.458,30.804c-4.693,7.85-7.575,17.388-5.224,26.481
		c1.726,7.215,7.187,12.544,11.814,18.014c-14.61,0.635-29.42-3.034-41.916-10.666c-8.211-5.072-15.435-13.046-16.677-22.954
		c-1.223-11.093,3.508-21.759,9.007-31.098C303.7,121.163,304.857,118.319,307.672,118.12z"/>
	<path fill="#00A8D2" stroke="#00A8D2" stroke-width="0.5" d="M372.789,112.621c28.529-0.578,57.143,2.598,84.923,9.073
		c-8.391,12.866-18.46,24.698-30.245,34.587c-10.771,9.121-23.286,15.9-36.104,21.693c-12.506,5.3-25.779,9.443-39.442,9.946
		c-4.627-5.471-10.088-10.799-11.814-18.014c-2.351-9.092,0.531-18.631,5.224-26.481
		C352.272,131.355,362.805,122.083,372.789,112.621z"/>
	<path fill="#FFFF33" stroke="#FFFF33" stroke-width="0.5" d="M217.677,148.469c23.39-11.804,48.098-21.153,73.659-26.974
		c-6.447,11.283-10.695,24.708-7.803,37.726c2.133,10.685,9.804,19.285,18.545,25.305c-19.683,7.026-39.129,14.952-57.446,25.078
		c-14.762,8.258-29.268,17.085-42.618,27.514c-2.105,1.536-4.011,3.394-6.333,4.627c-9.187,3.024-16.886,9.064-24.727,14.525
		c-25.04,18.062-45.415,41.803-62.727,67.193c-15.274,22.651-28.055,46.932-38.863,72.01c-2.702,6.077-6.419,12.013-12.591,15.028
		c-1.157-3.982-2.086-8.106-1.659-12.278c1.432-17.749,5.338-35.166,8.998-52.554c5.651-26.13,13.985-51.729,25.485-75.878
		c3.385-7.642,7.756-14.819,10.827-22.603c9.358-13.084,20.546-24.784,31.933-36.123
		C157.415,186.052,186.067,164.511,217.677,148.469z"/>
	<path fill="#FFFF33" stroke="#FFFF33" stroke-width="0.5" d="M468.378,124.311c29.249,8.068,57.418,20.091,83.33,35.905
		c22.755,13.833,43.68,30.558,62.784,49.094c7.073,7.092,14.326,14.099,20.593,21.93c2.787,8.543,6.921,16.535,10.458,24.765
		c13.624,30.596,26.016,61.779,36.133,93.721c6.096,20.366,11.586,41.262,11.795,62.661c-0.085,8.182-0.853,16.734-4.921,24.006
		c-2.086,3.821-5.518,6.589-8.78,9.348c-11.046-29.534-22.338-59.134-37.659-86.772c-12.363-22.575-27.571-43.983-47.254-60.765
		c-8.979-7.168-18.725-13.947-29.998-16.82c-7.566-6.959-14.336-14.866-22.651-20.972c2.655,3.366,6.002,6.125,8.618,9.538
		c4.418,9.51,10.496,18.09,15.701,27.164c12.686,21.304,24.973,42.845,36.654,64.718c6.646,12.913,13.331,25.874,18.375,39.518
		c1.801,5.091,3.555,10.353,3.546,15.815c0.18,2.465-1.906,4.162-2.759,6.286c-9.282-12.212-18.308-24.642-28.557-36.085
		c-14.961-16.981-31.335-33.099-50.753-44.941c-9.728-5.641-20.053-10.846-31.354-12.288c-6.807-2.892-13.492-6.258-20.716-8.031
		c-1.887-0.474-4.162-0.379-5.3,1.422c-3.091,4.779-5.414,10.06-8.941,14.554c-11.178,7.775-21.75,16.393-32.871,24.234
		c-15.578,11.178-31.658,21.627-47.965,31.696c-9.898,5.964-19.635,12.24-29.96,17.445c-17.844,8.22-35.801,16.213-53.91,23.836
		c-14.174,5.888-28.529,11.472-43.367,15.445c-4.504,1.242-9.216,1.318-13.842,1.252c0.313-3.536,0.692-7.272,3.281-9.955
		c9.538-11.633,21.627-20.773,32.975-30.529c21.902-19.939,42.21-41.888,58.309-66.842c7.756-12.164,14.952-24.717,20.906-37.877
		c3.783-8.571,7.718-17.151,9.832-26.329c3.318-5.414,7.215-10.467,10.628-15.843c-0.379,0.218-1.119,0.673-1.489,0.901
		c-6.561,3.451-11.406,9.168-17.104,13.767c-24.812,21.683-49.994,42.94-75.451,63.865c-28.083,22.338-56.005,45.017-86.099,64.633
		c-13.255,8.524-26.642,17.009-41.063,23.437c-8.675,3.565-17.806,7.424-27.382,6.722c-5.091-0.265-9.585-3.764-11.501-8.419
		c-3.394-8.059-3.679-17.076-2.835-25.666c1.688-15.9,6.921-31.174,13.065-45.841c13.586-32.786,32.027-63.249,50.99-93.134
		c4.608-7.5,10.126-14.43,13.994-22.366c9.149-8.305,19.455-15.274,29.752-22.082c20.811-13.748,43.291-24.841,66.425-34.094
		c1.839-1.176,3.574,0.455,5.158,1.271c14.639,8.675,32.065,12.392,48.98,10.932c19.74-1.82,38.37-9.567,55.588-19.029
		C435.45,166.976,454.375,146.924,468.378,124.311z"/>
	<path fill="#FFCC00" stroke="#FFCC00" stroke-width="0.5" d="M635.086,231.24c21.446,24.006,38.825,51.625,51.767,81.064
		c25.419,59.257,30.852,126.176,18.868,189.292c-6.239-7.585-13.672-14.544-22.831-18.403c-9.329-4.134-20.043-4.333-29.723-1.318
		c-1.214-19.607-3.565-39.195-8.154-58.319c-9.547-40.94-28.633-79.462-54.555-112.485c-7.945-10.401-16.867-19.967-25.599-29.686
		c11.273,2.873,21.02,9.652,29.998,16.82c19.683,16.782,34.891,38.19,47.254,60.765c15.322,27.638,26.614,57.238,37.659,86.772
		c3.261-2.759,6.694-5.528,8.78-9.348c4.067-7.272,4.835-15.824,4.921-24.006c-0.209-21.399-5.698-42.296-11.795-62.661
		c-10.116-31.942-22.508-63.126-36.133-93.721C642.007,247.775,637.873,239.782,635.086,231.24z"/>
	<path fill="#FFCC00" stroke="#FFCC00" stroke-width="0.5" d="M170.954,256.27c7.841-5.461,15.54-11.501,24.727-14.525
		c-8.078,7.538-16.753,14.449-24.367,22.499c-24.044,24.386-43.651,53.019-58.319,83.937
		c-19.199,41.328-30.548,86.051-35.45,131.276c-14.516,3.119-25.561,14.099-33.943,25.741c-4.674-22.376-6.94-45.301-6.722-68.16
		c-0.265-43.936,8.258-88.137,26.396-128.242c7.206-16.639,16.298-32.407,26.557-47.349c3.394-4.845,6.627-9.841,10.59-14.26
		c-3.072,7.784-7.443,14.961-10.827,22.603c-11.501,24.149-19.835,49.748-25.485,75.878c-3.66,17.388-7.566,34.805-8.998,52.554
		c-0.427,4.172,0.503,8.296,1.659,12.278c6.172-3.015,9.889-8.95,12.591-15.028c10.809-25.078,23.589-49.359,38.863-72.01
		C125.539,298.073,145.914,274.332,170.954,256.27z"/>
	<path fill="#FFCC00" stroke="#FFCC00" stroke-width="0.5" d="M168.821,278.769c11.197-13.179,23.532-25.457,37.043-36.256
		c-3.868,7.936-9.386,14.867-13.994,22.366c-18.962,29.885-37.403,60.348-50.99,93.134c-6.144,14.667-11.377,29.942-13.065,45.841
		c-0.844,8.59-0.559,17.607,2.835,25.666c1.915,4.655,6.409,8.154,11.501,8.419c9.576,0.702,18.706-3.157,27.382-6.722
		c14.421-6.428,27.808-14.914,41.063-23.437c30.093-19.617,58.015-42.296,86.099-64.633c25.457-20.925,50.639-42.182,75.451-63.865
		c5.698-4.598,10.543-10.315,17.104-13.767c-8.988,13.112-19.067,25.485-29.174,37.764c-23.513,28.14-49.454,54.232-77.3,78.096
		c-51.653,43.974-110.93,78.627-173.752,104.027c-2.105,0.872-4.788,1.754-6.665-0.066c-4.276-3.214-9.092-5.698-14.345-6.836
		c2.731-23.845,7.329-47.444,13.615-70.606C114.721,360.847,136.85,315.897,168.821,278.769z"/>
	<path fill="#FFCC00" stroke="#FFCC00" stroke-width="0.5" d="M550.827,269.951c5.954,5.528,11.027,11.927,16.251,18.128
		c27.628,33.649,49.568,72.294,62.064,114.106c7.689,25.239,12.041,51.426,13.454,77.755
		c-17.028-29.392-35.336-58.167-56.868-84.515c-20.697-25.732-44.855-49.378-74.048-65.287c11.302,1.441,21.627,6.646,31.354,12.288
		c19.417,11.842,35.792,27.96,50.753,44.941c10.249,11.444,19.275,23.874,28.557,36.085c0.853-2.124,2.939-3.821,2.759-6.286
		c0.01-5.461-1.745-10.723-3.546-15.815c-5.044-13.643-11.728-26.604-18.375-39.518c-11.681-21.873-23.968-43.414-36.654-64.718
		C561.322,288.041,555.245,279.461,550.827,269.951z"/>
	<path fill="#FFCC00" stroke="#FFCC00" stroke-width="0.5" d="M362.73,303.932c6.049-7.632,11.472-15.739,17.379-23.475
		c-2.114,9.178-6.049,17.758-9.832,26.329c-5.954,13.16-13.15,25.713-20.906,37.877c-16.099,24.954-36.408,46.903-58.309,66.842
		c-11.349,9.756-23.437,18.896-32.975,30.529c-2.588,2.683-2.968,6.419-3.281,9.955c4.627,0.066,9.339-0.009,13.842-1.252
		c14.838-3.973,29.193-9.557,43.367-15.445c18.109-7.623,36.066-15.615,53.91-23.836c10.325-5.205,20.062-11.482,29.96-17.445
		c16.308-10.069,32.388-20.517,47.965-31.696c11.121-7.841,21.693-16.459,32.871-24.234c-6.096,10.372-13.748,19.759-21.598,28.851
		c-19.74,22.432-44.021,40.523-69.924,55.256c-28.567,16.327-59.618,27.761-91.124,36.958
		c-50.952,14.307-103.62,21.778-156.345,25.353c5.973-3.233,12.326-5.727,18.375-8.836c18.649-9.405,37.09-19.304,54.526-30.823
		c14.81-9.282,29.079-19.398,42.893-30.112c14.904-11.169,28.718-23.674,42.352-36.332c13.7-12.828,26.595-26.5,39.129-40.475
		C344.592,326.876,353.694,315.414,362.73,303.932z"/>
	<path fill="#FFDA8C" stroke="#FFDA8C" stroke-width="0.5" d="M484.487,345.905c2.247-4.361,5.158-8.362,7.528-12.667
		c23.911,8.704,44.268,24.822,62.187,42.542c25.381,25.504,46.221,55.095,65.221,85.53c7.49,12.117,14.696,24.414,21.494,36.929
		c-1.441,9.055-1.46,18.318-0.123,27.391c0.038,23.864-1.944,47.728-4.864,71.403c-2.797,19.114-6.921,38.332-15.341,55.835
		c-5.651,12.221-15.833,21.513-26.14,29.818c-15.54,12.202-33.601,20.754-52.052,27.562c-21.19,7.86-43.31,12.894-65.543,16.744
		c-33.516,5.859-67.487,8.751-101.458,10.041c-23.011-0.929-46.05-2.323-68.89-5.347c-11.065-3.944-22.423-7.026-33.374-11.292
		c-29.117-10.808-57.058-25.865-79.964-47.065c-9.955-9.481-18.811-20.223-25.789-32.084c-6.333-10.543-10.344-22.224-14.601-33.696
		c-6.03-16.829-10.733-34.265-12.24-52.128c-0.768-9.841-0.199-20.005,3.499-29.249c1.602-4.039,3.925-8.002,7.651-10.41
		c5.973-3.925,13.198-4.978,20.034-6.514c68.037-14.62,136.491-30.558,200.024-59.693c26.026-12.155,51.445-26.358,73.024-45.51
		c10.78-9.832,20.963-20.517,28.652-32.995C478.135,363.18,482.629,354.979,484.487,345.905 M198.838,525.953
		c-4.011,7.775-5.84,16.44-7.538,24.964c4.447-6.627,8.239-13.824,13.88-19.541c0.891-0.986,2.513-2.247,3.736-0.958
		c6.134,5.613,9.946,13.179,14.696,19.901c-1.394-8.163-3.119-16.412-6.741-23.911c-1.82-3.546-4.845-7.471-9.301-7.12
		C203.399,518.984,200.611,522.682,198.838,525.953 M536.728,526.322c-3.944,7.699-5.802,16.241-7.528,24.661
		c4.456-6.533,8.381-13.501,13.862-19.256c1.081-1.005,2.797-2.882,4.191-1.214c6.077,5.802,10.012,13.397,14.582,20.366
		c-1.422-8.306-2.911-16.772-6.618-24.405c-1.763-3.546-4.731-7.481-9.159-7.177C541.611,518.918,538.577,522.814,536.728,526.322
		 M204.195,564.456c-5.632,2.759-8.277,9.073-9.785,14.81c-2.257,10.145-1.033,21.864,5.945,29.989
		c4.172,5.082,13.056,5.072,17.151-0.114c6.447-7.632,7.718-18.337,6.201-27.913c-0.986-5.404-3.138-10.856-7.111-14.762
		C213.401,563.252,208.262,563.014,204.195,564.456 M541.63,564.294c-6.021,2.617-8.789,9.329-10.287,15.312
		c-2.067,10.353-0.872,22.432,6.732,30.368c2.93,3.205,7.661,3.442,11.643,2.569c3.337-1.185,5.67-4.105,7.386-7.082
		c4.039-6.893,4.807-15.227,3.821-23.03c-0.939-5.907-3.1-11.994-7.556-16.175C550.286,563.299,545.517,563.128,541.63,564.294
		 M364.787,591.439c-5.11,6.94-6.589,15.701-8.23,23.968c3.366-5.632,5.926-12.126,11.226-16.289
		c4.798-3.84,12.875-3.736,16.725,1.375c3.66,4.456,6.485,9.51,9.927,14.127c-1.517-8.77-2.75-18.536-9.367-25.135
		C379.502,583.835,369.338,585.134,364.787,591.439 M435.242,646.629c-8.827,12.496-22.195,23.419-38.038,24.319
		c-6.931,0.683-13.88,1.422-20.859,1.242c-14.658,0.275-30.027-1.564-42.741-9.415c-11.937-7.035-21.048-17.853-28.396-29.43
		c3.461,11.908,8.884,23.608,17.777,32.454c7.67,7.869,17.957,12.989,28.756,14.904c15.672,3.148,31.819,2.285,47.605,0.493
		c14.004-0.692,26.851-9.235,34.407-20.802c6.144-9.614,9.841-20.65,11.785-31.847C442.447,634.759,439.347,640.997,435.242,646.629
		 M377.293,701.914c-14.506,0.133-28.785-2.968-42.684-6.864c5.319,6.419,11.586,12.278,19.266,15.739
		c10.619,5.253,22.85,6.22,34.464,4.674c12.743-2.133,24.291-10.05,30.918-21.143C405.831,699.202,391.628,702.246,377.293,701.914z
		"/>
	<path fill="#FFC753" stroke="#FFC753" stroke-width="0.5" d="M452.004,385.65c12.231-12.041,22.802-25.609,32.483-39.745
		c-1.858,9.074-6.352,17.275-11.065,25.144c-7.689,12.477-17.872,23.163-28.652,32.995c-21.579,19.152-46.998,33.355-73.024,45.51
		c-63.533,29.136-131.987,45.074-200.024,59.693c-6.836,1.536-14.061,2.588-20.034,6.514c-3.726,2.408-6.049,6.371-7.651,10.41
		c-3.698,9.244-4.267,19.408-3.499,29.249c1.508,17.863,6.21,35.298,12.24,52.128c4.257,11.472,8.268,23.153,14.601,33.696
		c6.978,11.861,15.834,22.603,25.789,32.084c22.907,21.2,50.848,36.256,79.964,47.065c10.951,4.267,22.309,7.348,33.374,11.292
		c-11.539-0.853-22.944-2.958-34.35-4.816c-27.239-4.712-54.327-11.387-79.718-22.508c-19.929-8.922-39.11-20.963-52.81-38.257
		c-11.159-15.701-18.46-33.829-23.627-52.298c-10.135-37.972-11.207-77.689-9.159-116.732c17.426-1.479,34.929-2.019,52.346-3.755
		c43.528-3.935,86.942-10.41,129.19-21.807c32.549-8.59,64.557-19.844,94.233-35.858C407.86,422.257,431.696,405.836,452.004,385.65
		z"/>
	<path fill="#FFDA8C" stroke="#FFDA8C" stroke-width="0.5" d="M60.299,501.188c6.172-6.277,14.25-10.884,23.049-12.06
		c4.864-0.616,9.671,1.726,13.198,4.921c-0.455,8.514-0.977,17.028-1.024,25.571c-7.31-3.043-15.947-1.65-22.158,3.148
		c-7.386,5.727-12.439,14.25-14.487,23.324c-3.157,14.193-1.707,30.074,7.026,42.096c6.542,10.031,17.426,16.26,28.624,19.787
		c3.138,1.034,6.352,1.934,9.68,2.001c2.057,9.045,4.921,17.881,8.068,26.595c-16.402-4.741-32.805-11.121-45.965-22.29
		c-10.173-8.637-17.844-20.148-22.214-32.739c-4.57-13.549-4.674-28.207-2.541-42.229C43.745,525.118,50.116,511.418,60.299,501.188
		z"/>
	<path fill="#FFDA8C" stroke="#FFDA8C" stroke-width="0.5" d="M651.346,493.811c6.504-2.835,13.814-4.883,20.868-2.939
		c14.117,2.949,24.86,14.193,31.477,26.471c6.694,12.221,8.827,26.358,9.045,40.124c0.171,17.218-5.537,34.455-16.327,47.918
		c-14.402,18.356-37.081,27.372-58.963,33.25c2.588-8.543,4.684-17.227,6.428-25.978c15.559-3.48,32.663-8.495,42.333-22.186
		c10.278-13.473,11.624-32.056,6.504-47.833c-3.034-8.353-8.419-16.327-16.365-20.678c-7.727-3.764-16.877-4.466-25.059-1.754
		C651.46,511.408,651.469,502.6,651.346,493.811z"/>
	<path fill="#FFF9A0" stroke="#FFF9A0" stroke-width="0.5" d="M640.794,525.63c-1.337-9.073-1.318-18.337,0.123-27.391
		C641.381,507.35,641.182,516.509,640.794,525.63z"/>
	<path fill="#010000" stroke="#010000" stroke-width="0.5" d="M198.838,525.953c1.773-3.271,4.56-6.969,8.732-6.665
		c4.456-0.351,7.481,3.574,9.301,7.12c3.622,7.5,5.347,15.748,6.741,23.911c-4.75-6.722-8.561-14.288-14.696-19.901
		c-1.223-1.289-2.844-0.028-3.736,0.958c-5.641,5.717-9.434,12.913-13.88,19.541C192.998,542.393,194.827,533.727,198.838,525.953z"
		/>
	<path fill="#010000" stroke="#010000" stroke-width="0.5" d="M536.728,526.322c1.849-3.508,4.883-7.405,9.33-7.026
		c4.428-0.303,7.395,3.631,9.159,7.177c3.707,7.632,5.196,16.099,6.618,24.405c-4.57-6.969-8.505-14.563-14.582-20.366
		c-1.394-1.669-3.11,0.209-4.191,1.214c-5.48,5.755-9.405,12.724-13.862,19.256C530.926,542.564,532.784,534.021,536.728,526.322z"
		/>
	<path fill="#FFC753" stroke="#FFC753" stroke-width="0.5" d="M69.818,545.74c2.304-6.94,6.684-13.937,13.757-16.696
		c3.982-1.602,8.002,0.645,11.927,1.346c0.199,23.125,1.877,46.316,6.457,69.013c-10.221-2.911-20.669-7.49-27.069-16.374
		C67.012,572.448,66.177,558.065,69.818,545.74z"/>
	<path fill="#FFC753" stroke="#FFC753" stroke-width="0.5" d="M651.289,531.234c6.77-3.233,15.189-3.28,21.589,0.863
		c5.812,4.011,9.32,10.619,10.932,17.37c1.811,8.087,2.019,16.744-0.721,24.651c-2.532,7.101-7.064,13.634-13.406,17.815
		c-7.282,4.788-15.653,7.575-24.035,9.728C649.298,578.365,650.436,554.775,651.289,531.234z"/>
	<path stroke="#000000" stroke-width="0.5" d="M204.195,564.456c4.067-1.441,9.206-1.204,12.401,2.01
		c3.973,3.906,6.125,9.358,7.111,14.762c1.517,9.576,0.247,20.28-6.201,27.913c-4.096,5.186-12.98,5.196-17.151,0.114
		c-6.978-8.125-8.201-19.844-5.945-29.989C195.918,573.529,198.563,567.215,204.195,564.456 M204.811,596.692
		c0.711-2.579,1.356-5.224,3.006-7.386c3.878,0.55,3.878,4.854,5.148,7.727c1.242-7.746,2.143-17.464-4.2-23.305
		C202.896,579.711,203.161,589.04,204.811,596.692z"/>
	<path stroke="#000000" stroke-width="0.5" d="M541.63,564.294c3.887-1.166,8.656-0.996,11.738,1.963
		c4.456,4.181,6.618,10.268,7.556,16.175c0.986,7.803,0.218,16.137-3.821,23.03c-1.716,2.977-4.048,5.897-7.386,7.082
		c-3.982,0.872-8.713,0.635-11.643-2.569c-7.604-7.936-8.799-20.015-6.732-30.368C532.841,573.624,535.609,566.911,541.63,564.294
		 M541.535,596.483c0.863-2.873,0.635-6.713,3.584-8.4c4.636,0.588,3.555,6.864,4.314,10.268c2.181-8.087,2.664-18.1-3.413-24.67
		C539.677,579.332,540.634,588.86,541.535,596.483z"/>
	<path fill="#FEFEFE" stroke="#FEFEFE" stroke-width="0.5" d="M204.811,596.692c-1.65-7.651-1.915-16.981,3.954-22.963
		c6.343,5.84,5.442,15.559,4.2,23.305c-1.27-2.873-1.27-7.177-5.148-7.727C206.167,591.468,205.522,594.113,204.811,596.692z"/>
	<path fill="#FEFEFE" stroke="#FEFEFE" stroke-width="0.5" d="M541.535,596.483c-0.901-7.623-1.858-17.151,4.485-22.802
		c6.077,6.57,5.594,16.583,3.413,24.67c-0.758-3.404,0.322-9.68-4.314-10.268C542.17,589.77,542.398,593.61,541.535,596.483z"/>
	<path fill="#010100" stroke="#010100" stroke-width="0.5" d="M364.787,591.439c4.551-6.305,14.715-7.604,20.28-1.953
		c6.618,6.599,7.85,16.365,9.367,25.135c-3.442-4.617-6.267-9.671-9.927-14.127c-3.849-5.11-11.927-5.215-16.725-1.375
		c-5.3,4.162-7.86,10.657-11.226,16.289C358.198,607.14,359.677,598.379,364.787,591.439z"/>
	<path stroke="#000000" stroke-width="0.5" d="M435.242,646.629c4.105-5.632,7.206-11.87,10.297-18.081
		c-1.944,11.197-5.641,22.233-11.785,31.847c-7.556,11.567-20.403,20.109-34.407,20.802c-15.786,1.792-31.933,2.655-47.605-0.493
		c-10.799-1.915-21.086-7.035-28.756-14.904c-8.893-8.846-14.317-20.546-17.777-32.454c7.348,11.577,16.459,22.395,28.396,29.43
		c12.714,7.85,28.083,9.69,42.741,9.415c6.978,0.18,13.928-0.559,20.859-1.242C413.046,670.047,426.415,659.125,435.242,646.629z"/>
	<path fill="#FFC753" stroke="#FFC753" stroke-width="0.5" d="M377.293,701.914c14.336,0.332,28.538-2.712,41.964-7.594
		c-6.627,11.093-18.175,19.01-30.918,21.143c-11.614,1.545-23.845,0.578-34.464-4.674c-7.68-3.461-13.947-9.32-19.266-15.739
		C348.508,698.946,362.787,702.046,377.293,701.914z"/>
	<path fill="#4E2675" stroke="#4E2675" stroke-width="0.5" d="M268.098,749.386c6.314-2.835,12.724-5.461,19.218-7.86
		c15.587,35.516,31.326,70.995,48.733,105.668c16.744,33.725,34.274,67.051,52.621,99.932c17.038,30.624,35.27,60.566,53.882,90.251
		c19.626,30.966,39.859,61.552,61.343,91.266c21.285,29.998,43.784,59.115,66.605,87.957c6.788,8.353,13.624,16.677,20.536,24.926
		c3.186,3.783,6.665,7.775,7.471,12.838c0.465,2.342-0.502,5.072-2.702,6.21c-2.797,1.536-6.314,1.062-8.931-0.597
		c-4.286-2.588-7.272-6.703-10.591-10.325c-49.444-55.038-92.223-115.67-132.025-177.943
		c-38.636-60.708-74.01-123.445-107.981-186.865c-17.929-33.857-35.242-68.027-52.203-102.378
		C278.793,771.411,273,760.612,268.098,749.386z"/>
	<path fill="#0033FF" stroke="#0033FF" stroke-width="0.5" d="M298.912,741.479c17.91,2.219,35.905,3.821,53.929,4.75
		c-3.849,4.399-7.395,9.339-8.59,15.179c-2.56,10.59,0.521,22.546,8.713,29.923c2.219,2.323,5.461,3.574,7.424,6.106
		c-2.778,16.611-7.007,33.08-12.989,48.857C330.2,811.848,313.93,776.929,298.912,741.479z"/>
	<path fill="#0033FF" stroke="#0033FF" stroke-width="0.5" d="M396.208,746.267c18.393-0.721,36.73-2.636,55.019-4.731
		c9.083,0.446,17.995,2.854,26.652,5.537c28.614,9.377,53.389,27.609,74.759,48.43c24.177,23.362,44.467,50.421,62.775,78.533
		c31.885,49.331,57.418,102.435,80.694,156.269c1.119,3.1,3.593,6.172,2.55,9.633c-0.512,1.469-0.446,3.527-1.782,4.513
		c-12.8,6.988-25.447,14.582-39.565,18.649c-10.135,3.1-21.029,4.485-31.515,2.475c-7.234-1.356-12.951-6.466-17.72-11.757
		c-11.358-12.989-19.645-28.264-27.533-43.509c-15.445-29.97-27.723-61.429-39.83-92.859c-3.271-8.277-5.888-16.801-9.728-24.841
		c-0.711-1.735-1.176-3.546-1.735-5.309c1.299,17.891,3.802,35.668,5.755,53.502c-0.73-0.142-2.19-0.417-2.93-0.559
		c-29.505-7.519-59.305-18.356-82.325-38.968c-13.549-12.762-26.168-26.557-37.27-41.499c-3.792-5.376-7.575-10.752-11.406-16.09
		c-2.863-6.665-3.906-13.966-5.556-20.991c-1.64-9.178-3.698-18.45-3.755-27.761c6.182-4.845,11.614-11.178,13.188-19.086
		C407.604,765.276,403.944,753.814,396.208,746.267z"/>
	<path fill="#FF8811" stroke="#FF8811" stroke-width="0.5" d="M354.491,763.067c2.512-9.149,12.041-16.061,21.598-14.658
		c-3.167,3.394-6.295,7.064-7.651,11.596c-3.024,10.022-1.659,22.015,5.945,29.705c-5.167-0.284-10.297-2.114-14.013-5.793
		C354.623,778.816,352.547,770.387,354.491,763.067z"/>
	<path fill="#FF66FF" stroke="#FF66FF" stroke-width="0.5" d="M376.089,748.409c11.643-0.123,21.01,12.117,19.057,23.362
		c-1.204,10.088-10.714,17.938-20.764,17.938c-7.604-7.689-8.969-19.683-5.945-29.705
		C369.793,755.473,372.922,751.804,376.089,748.409z"/>
	<path fill="#0033FF" stroke="#0033FF" stroke-width="0.5" d="M192.144,807.468c19.541-20.745,41.603-39.413,66.672-53.151
		c21.465,44.817,44.069,89.085,67.297,133.021c-14.838,20.309-35.507,36.939-59.561,44.78c-9.026-2.057-18.024-5.253-25.324-11.103
		c-9.737-7.481-15.976-18.403-21.02-29.373c-0.332-1.071-0.626-2.143-0.872-3.205c-0.341,1.432-0.607,2.892-1.128,4.295
		c-4.38,7.575-7.319,15.843-10.837,23.826c-6.599,15.435-13.236,30.852-20.261,46.107c-11.453,24.698-22.594,49.681-37.318,72.664
		c-4.428,6.713-9.007,13.757-15.995,18.09c-7.756,4.769-16.943,6.504-25.903,7.177c-18.526,1.157-36.787-2.968-54.858-6.447
		c-1.09-1.375-2.38-3.281-1.403-5.025c13.748-34.104,28.766-67.724,45.491-100.472c10.173-19.076,20.214-38.238,31.677-56.584
		c9.358-15.094,19.057-30.017,29.818-44.163C169.257,833.996,179.895,820.011,192.144,807.468z"/>
	<path fill="#FF0000" stroke="#FF0000" stroke-width="0.5" d="M370.618,799.94c3.631,0.038,7.272-0.066,10.875-0.54
		c2.2,23.153,7.405,46.088,16.052,67.705c9.652,24.632,25.855,47.169,48.022,61.959c8.903,5.897,18.564,10.704,28.766,13.928
		c1.773,0.635,3.679,1.062,5.281,2.143c9.652,10.344,19.294,20.754,27.818,32.075c11.69,15.303,21.854,31.705,31.146,48.553
		c5.167,9.149,9.301,18.849,14.876,27.78c2.949,9.879,4.598,20.138,7.367,30.084c-7.756,2-15.559,3.849-23.314,5.84
		c-2.285,0.512-5.063,1.868-4.978,4.608c0.019,9.481,1.034,18.953,2.389,28.33c2.816,17.919,7.348,36.578,19.342,50.734
		c7.073,8.637,17.796,13.71,28.832,14.686c-0.929,8.96-2.029,18.062-0.332,27.002c-46.353-57.219-89.379-117.13-128.944-179.242
		c-36.237-57.21-69.554-116.258-100.263-176.606C361.658,840.092,366.74,820.068,370.618,799.94z"/>
	<path fill="#0023B0" stroke="#0023B0" stroke-width="0.5" d="M401.072,843.686c3.83,5.338,7.613,10.714,11.406,16.09
		c11.102,14.942,23.722,28.737,37.27,41.499c23.02,20.612,52.82,31.449,82.325,38.968c-32.9,1.47-67.515-7.424-92.328-29.913
		c-13.681-12.259-23.798-28.036-31.127-44.761C405.67,858.438,402.532,851.29,401.072,843.686z"/>
	<path fill="#0023B0" stroke="#0023B0" stroke-width="0.5" d="M220.209,891.642c5.044,10.97,11.283,21.892,21.02,29.373
		c7.301,5.85,16.298,9.045,25.324,11.103c-16.042,6.144-33.345,8.533-50.449,9.073c1.176-12.856,2.228-25.722,2.873-38.617
		C219.137,898.904,219.507,895.235,220.209,891.642z"/>
	<path fill="#0023B0" stroke="#0023B0" stroke-width="0.5" d="M207.371,916.558c3.517-7.983,6.457-16.251,10.837-23.826
		c0.161,8.277-1.669,16.421-2.541,24.623c-10.249,75.423-28.206,149.784-53.559,221.556c-19.105-1.631-37.896-7.813-53.919-18.403
		c-12.629-8.239-23.589-18.849-32.966-30.624c-8.59-11.093-16.364-22.944-22.186-35.734c18.071,3.48,36.332,7.604,54.858,6.447
		c8.96-0.673,18.147-2.408,25.903-7.177c6.988-4.333,11.567-11.377,15.995-18.09c14.724-22.982,25.865-47.965,37.318-72.664
		C194.135,947.41,200.772,931.993,207.371,916.558z"/>
	<path fill="#0023B0" stroke="#0023B0" stroke-width="0.5" d="M530.983,892.609c3.84,8.04,6.457,16.564,9.728,24.841
		c12.107,31.43,24.386,62.889,39.83,92.859c7.888,15.246,16.175,30.52,27.533,43.509c4.769,5.29,10.486,10.401,17.72,11.757
		c10.486,2.01,21.38,0.626,31.515-2.475c14.117-4.067,26.765-11.662,39.565-18.649c-0.815,7.187-3.897,13.823-6.457,20.508
		c-7.187,17.009-18.327,32.397-32.511,44.249c-19.161,16.052-43.054,25.647-67.307,30.814c-2.588-3.318-3.461-7.604-5.11-11.406
		c-15.445-41.404-25.959-84.439-35.535-127.522c-6.874-33.288-13.198-66.7-18.507-100.273
		C530.945,898.108,530.784,895.349,530.983,892.609z"/>
	<path fill="#FF0000" stroke="#FF0000" stroke-width="0.5" d="M293.318,931.415c14.734-8.704,27.628-20.366,38.143-33.829
		c18.166,33.668,36.455,67.278,55.74,100.33c49.037,83.766,101.961,165.693,164.764,239.902
		c-13.359,8.827-27.827,16.014-43.026,21.077c-19.038,6.514-38.968,9.633-58.726,13.056c-26.604,4.38-53.531,6.836-80.505,6.845
		c-24.073,0.009-48.107-1.887-71.962-4.997c-10.553-1.536-21.067-3.404-31.421-5.954c-4.978-19.474-10.704-38.778-14.667-58.499
		c-3.034-15.492-6.115-30.984-8.429-46.59c-8.533-59.684-10.628-120.354-4.959-180.398c1.128-11.093,1.849-22.252,4.077-33.184
		C260.229,946.433,277.702,940.583,293.318,931.415z"/>
	<path fill="#C60000" stroke="#C60000" stroke-width="0.5" d="M479.614,945.134c9.159,1.745,18.242,4.011,27.562,4.873
		c9.718,1.299,19.541,0.853,29.316,0.901c3.214,24.443,6.931,48.838,11.415,73.09c1.678,9.879,4.276,19.598,5.547,29.543
		c-5.575-8.931-9.709-18.63-14.876-27.78c-9.292-16.848-19.455-33.25-31.146-48.553
		C498.908,965.889,489.265,955.478,479.614,945.134z"/>
	<path fill="#C60000" stroke="#C60000" stroke-width="0.5" d="M215.041,951.638c9.14-0.228,18.27-1.024,27.306-2.465
		c-2.228,10.932-2.949,22.091-4.077,33.184c-5.67,60.044-3.574,120.714,4.959,180.398c2.313,15.606,5.395,31.098,8.429,46.59
		c3.963,19.721,9.69,39.025,14.667,58.499c-37.242-8.514-72.882-24.49-103.449-47.491c2.56-3.091,5.072-6.343,6.343-10.192
		c2.351-6.874,1.517-14.26,1.09-21.352c7.888,0.673,16.184-1.081,22.281-6.362c11.112-9.292,16.327-23.504,19.797-37.147
		c3.982-16.81,6.058-34.037,6.988-51.274c0.36-2.683-1.394-5.139-3.935-5.869c-8.002-2.882-16.042-5.66-24.044-8.514
		c5.547-21.475,10.543-43.111,14.563-64.927C209.779,993.811,212.5,972.734,215.041,951.638z"/>
	<path fill="#009900" stroke="#009900" stroke-width="0.5" d="M188.636,1089.855c6.77,2.124,13.397,4.674,20.1,7.016
		c-1.46,19.418-3.394,39.119-10.031,57.56c-3.281,8.438-7.784,17.436-16.213,21.74c-4.077,2.256-8.846,2.048-13.34,1.925
		c-1.147-9.225-2.095-18.46-3.11-27.685c2.02-1.498,4.342-2.968,5.101-5.518C177.477,1126.708,183.365,1108.372,188.636,1089.855z"
		/>
	<path fill="#009900" stroke="#009900" stroke-width="0.5" d="M543.109,1098.853c6.855-1.669,13.653-3.584,20.593-4.921
		c4.807,17.72,10.524,35.223,17.54,52.194c0.882,2.825,3.28,4.589,5.765,5.964c-0.939,8.4-2.01,16.791-2.987,25.201
		c-7.955-1.308-15.568-4.978-20.934-11.083c-9.5-10.619-13.719-24.717-16.554-38.38
		C544.645,1118.28,543.356,1108.59,543.109,1098.853z"/>
	<path fill="#FFC753" stroke="#FFC753" stroke-width="0.5" d="M70.434,1111.434c1.441-2.076,2.835-4.191,4.21-6.305
		c11.52,12.98,25.353,23.997,40.911,31.753c12.458,6.229,26.035,10.05,39.84,11.766c1.697,14.383,3.29,28.794,4.665,43.225
		c0.474,6.078,1.005,12.79-2.408,18.176c-1.318,1.877-3.252,4.105-5.821,3.489c-2.2-0.882-3.679-2.939-4.579-5.034
		c-1.299-13.103-0.74-27.296-7.689-39.006c-0.436,21.873,0.986,44.049-3.508,65.61c-1.109,2.939-3.337,7.215-6.969,6.826
		c-5.053-2.607-7.926-7.945-9.794-13.093c-5.376-14.724-7.443-30.397-8.912-45.917c-0.948,3.868-1.327,7.841-1.773,11.804
		c-0.882-19.323-7.528-38.067-17.095-54.754C85.472,1129.799,78.844,1119.825,70.434,1111.434z"/>
	<path fill="#FFDA8C" stroke="#FFDA8C" stroke-width="0.5" d="M645.316,1130.833c10.894-6.476,21.285-13.985,29.989-23.257
		c11.34,15.985,21.94,33.393,25.068,53.066c1.934,12.24-1.631,25.201-10.031,34.388c0.104-7.879-0.152-15.824-2.19-23.475
		c-2.275,12.544-4.21,25.248-8.362,37.365c-2.133,6.049-5.859,11.738-11.586,14.923c2.266-15.208,1.356-30.766-0.872-45.908
		c-0.882,3.792-0.967,7.727-1.811,11.548c-1.024-16.507-4.172-33.26-12.638-47.681
		C650.692,1137.925,648.009,1134.36,645.316,1130.833z"/>
	<path fill="#FFDA8C" stroke="#FFDA8C" stroke-width="0.5" d="M70.434,1111.434c8.41,8.391,15.037,18.365,21.077,28.538
		c9.566,16.687,16.213,35.431,17.095,54.754c-1.223,13.056-1.773,26.471,1.64,39.271c-7.063-1.403-12.126-7.244-14.715-13.653
		c-6.58-15.426-8.192-32.35-9.898-48.847c-2.294,15.303-3.062,31.003-0.891,46.372c-5.053-2.816-8.836-7.462-10.979-12.79
		c-5.082-12.553-6.817-26.092-8.874-39.375c-1.906,7.234-3.062,14.667-3.679,22.129c-6.058-7.395-9.756-16.801-9.415-26.433
		C52.117,1143.187,60.83,1126.443,70.434,1111.434z"/>
	<path fill="#FFC753" stroke="#FFC753" stroke-width="0.5" d="M597.74,1149.198c16.545-4.058,32.786-9.823,47.576-18.365
		c2.693,3.527,5.376,7.092,7.566,10.97c8.467,14.421,11.614,31.174,12.638,47.681c-1.318,10.173-3.11,20.347-6.049,30.198
		c-2.114,6.665-4.826,13.653-10.467,18.137c-2.029,1.707-4.684,2.2-7.187,2.74c1.82-10.069,1.811-20.366,1.289-30.539
		c-0.332-6.153-0.133-12.354-1.195-18.431c-1.318,12.572-2.882,25.201-6.533,37.346c-2.001,6.229-3.925,13.037-9.159,17.388
		c-1.432,1.109-3.413,2.844-5.139,1.28c-5.395-3.897-5.499-11.074-6.561-17.028c-2.114-18.005-2.503-36.161-3.451-54.251
		c-2.854,12.212-4.864,24.661-5.755,37.185c-0.133,2.759-2.171,5.253-4.646,6.343c-2.361,0.408-4.153-1.659-5.423-3.318
		c-3.119-4.447-3.214-10.116-2.882-15.322C593.502,1183.813,595.986,1166.539,597.74,1149.198z"/>
	<path fill="#502778" stroke="#502778" stroke-width="0.5" d="M595.189,1230.025c3.233,0.18,6.476,0.142,9.709-0.104
		c0.341,4.542,0.825,9.073,1.109,13.634C602.509,1238.956,598.915,1234.433,595.189,1230.025z"/>
	<path fill="#331A4D" stroke="#331A4D" stroke-width="0.5" d="M550.874,1250.751c2.702-1.669,5.395-3.337,8.078-5.035
		c6.779,7.557,12.932,15.824,20.83,22.281c4.086,3.546,9.491,4.93,14.829,4.513c-2.029,0.36-4.067,0.588-6.087,0.872
		c-0.986,9.718-0.778,19.503-0.465,29.25c0.702,12.676,1.735,25.504,5.717,37.64c2.039,5.888,4.722,11.946,9.661,15.985
		c3.963,3.205,9.263,3.48,14.089,4.305c-4.191,7.054-9.633,13.672-17.019,17.512c-6.637,3.612-14.544,4.266-21.873,2.882
		c-8.021-1.726-14.876-6.931-19.901-13.264c-2.484-3.205-5.471-6.618-5.376-10.922
		C553.861,1321.414,552.524,1286.058,550.874,1250.751z"/>
	<path fill="#4E2675" stroke="#4E2675" stroke-width="0.5" d="M608.539,1249.215c3.328,4.703,7.632,9.073,13.615,9.984
		c1.858,26.756,2.56,53.72-0.199,80.448c-0.92,7.054-1.1,14.449-4.428,20.916c-4.826-0.825-10.126-1.1-14.089-4.305
		c-4.94-4.039-7.623-10.097-9.661-15.985c-3.982-12.136-5.015-24.964-5.717-37.64c-0.313-9.747-0.521-19.531,0.465-29.25
		c2.019-0.284,4.058-0.512,6.087-0.872c4.854-1.327,9.405-4.333,12.269-8.495C609.838,1259.634,609.126,1254.135,608.539,1249.215z"
		/>
	<path fill="#000033" stroke="#000033" stroke-width="0.5" d="M191.708,1251.272c23.608,11.984,48.515,21.655,74.465,27.145
		c-4.257,3.157-5.347,8.562-6.969,13.293c-5.556,17.597-6.94,36.209-6.969,54.574c0.095,22.138,2.664,44.192,5.897,66.074
		c1.906,13.056,4.797,25.931,7.215,38.892c-6.864,3.518-14.108,7.338-18.45,13.985c-3.006,4.39-2.787,10.24-0.711,14.98
		c2.693,6.39,8.106,10.97,12.733,15.928c-10.932,0.483-21.883,1.327-32.615,3.555c-8.23,1.384-16.023,4.835-24.414,5.328
		c-5.139,0.531-10.809-0.019-14.885-3.508c-4.219-3.726-7.452-9.121-7.158-14.914c-0.104-8.353,4.589-16.469,11.823-20.612
		c2.38-1.801,6.476-3.186,6.04-6.826c-0.465-5.262-2.181-10.306-3.205-15.454c-2.513-10.059-3.195-20.432-4.456-30.691
		c-1.915-22.508-3.527-45.083-3.394-67.686C186.304,1313.924,187.811,1282.456,191.708,1251.272z"/>
	<path fill="#000071" stroke="#000071" stroke-width="0.5" d="M514.182,1267.93c9.073-2.892,17.654-7.063,26.31-10.989
		c1.005,8.381,0.815,16.839,1.318,25.248c2.219,49.814,1.233,99.704-1.384,149.471c-0.806,7.566-6.466,13.501-7.974,20.878
		c-0.474,2.702,2.001,4.437,3.878,5.878c6.049,4.276,11.889,9.235,15.578,15.777c2.247,3.916,3.138,8.571,2.389,13.046
		c-0.777,4.93-2.475,10.221-6.703,13.274c-4.409,3.224-10.211,3.584-15.435,2.797c-22.252-4.418-44.912-7.49-67.639-7.045
		c-3.461,0-6.912-0.076-10.353-0.114c-4.001-4.342-8.562-8.429-10.932-13.956c-2.266-5.101-2.152-11.283,0.758-16.09
		c4.001-6.931,10.97-11.283,17.483-15.568c-4.57-18.754-7.462-37.877-8.922-57.115c-2.181-37.669,0.199-75.669,7.993-112.627
		C478.609,1277.364,496.775,1274.017,514.182,1267.93z"/>
	<path fill="#000071" stroke="#000071" stroke-width="0.5" d="M259.205,1291.709c1.621-4.731,2.712-10.135,6.969-13.293
		c21.892,5.66,44.495,7.594,66.956,9.557c4.873,0.379,9.766,0.531,14.658,0.654c0.104,45.13-0.019,90.27,0.057,135.401
		c-0.085,3.622,0.436,7.348-0.446,10.913c-3.641,5.67-9.254,9.785-12.989,15.397c-1.508,2.143-0.654,5.148,1.498,6.523
		c7.187,5.309,14.838,10.97,18.564,19.399c2.674,5.831,2.01,12.923-1.422,18.299c-2.996,4.712-8.438,7.149-13.738,8.211
		c-7.272,1.498-14.819,1.1-22.015-0.607c-13.207-2.664-26.566-4.655-40.02-5.461c-6.115-0.408-12.25-0.19-18.356-0.559
		c-4.627-4.959-10.041-9.538-12.733-15.928c-2.076-4.741-2.294-10.59,0.711-14.98c4.342-6.646,11.586-10.467,18.45-13.985
		c-2.418-12.961-5.309-25.836-7.215-38.892c-3.233-21.883-5.802-43.936-5.897-66.074
		C252.264,1327.918,253.649,1309.306,259.205,1291.709z"/>
	<path fill="#000033" stroke="#000033" stroke-width="0.5" d="M407.585,1287.642c17.758-1.337,35.441-3.679,52.962-6.845
		c-7.793,36.958-10.173,74.958-7.993,112.627c1.46,19.237,4.352,38.361,8.922,57.115c-6.514,4.286-13.482,8.637-17.483,15.568
		c-2.911,4.807-3.025,10.989-0.758,16.09c2.37,5.528,6.931,9.614,10.932,13.956c-8.514,0.986-17.095,1.432-25.533,2.968
		c-11.254,1.688-22.404,6.011-33.933,4.172c-6.959-0.901-13.842-5.433-16.004-12.307c-1.602-7.974,1.545-16.583,7.462-22.063
		c2.958-2.825,7.101-4.191,9.699-7.395c0.882-3.025,0.275-6.428-1.583-8.96c-3.252-4.589-7.319-8.533-10.628-13.056
		c-1.583-1.972-1.726-4.589-1.915-6.978c-2.418-37.242-2.038-74.588-1.489-111.887c0.796-10.448,0.484-20.963,1.858-31.364
		C390.557,1288.163,399.118,1288.618,407.585,1287.642z"/>
	<path fill="#BB3D00" stroke="#BB3D00" stroke-width="0.5" d="M240.148,1508.003c26.225-2.977,52.81-0.436,78.552,4.997
		c8.343,1.896,17.009,1.109,25.381-0.142c2.02,17.531,1.014,36.085-6.826,52.184c-7.092,14.44-20.005,25.324-34.521,31.885
		c-8.078,3.963-17.019,5.509-25.722,7.481c-20.385,3.982-41.328,6.523-62.064,4.115l-0.313-0.597
		c-4.21-9.766-8.77-19.588-10.097-30.245c-2.437-16.071,2.683-32.757,12.629-45.453c6.637-8.381,14.677-15.54,23.219-21.921
		C240.328,1509.738,240.204,1508.582,240.148,1508.003z"/>
	<path fill="#993300" stroke="#993300" stroke-width="0.5" d="M415.483,1512.516c22.186-5.603,45.329-6.902,68.113-5.366
		c-6.362-0.095-12.714,0.076-19.067-0.123c-3.859-0.029-8.22-0.36-11.311,2.408c-9.178,7.642-17.654,17.303-20.024,29.363
		c-2.057,9.604,0.502,19.569,4.978,28.131c4.342,8.182,9.405,16.383,17.076,21.883c10.78,7.775,22.29,14.838,34.986,19.038
		c6.713,2.304,13.643,4.437,20.83,4.257c-23.76,1.877-48.098,3.034-71.422-2.873c-14.042-3.66-28.453-8.542-39.186-18.744
		c-9.424-8.514-15.17-20.47-17.493-32.833c-2.939-15.018-1.479-30.52,1.583-45.386
		C394.558,1515.446,405.348,1514.725,415.483,1512.516z"/>
	<path fill="#BB3D00" stroke="#BB3D00" stroke-width="0.5" d="M453.218,1509.435c3.091-2.768,7.452-2.437,11.311-2.408
		c6.352,0.199,12.705,0.028,19.067,0.123c11.197,0.341,22.3,2.067,33.345,3.849c7.509,1.081,14.876,3.717,22.556,3.072
		c3.555-0.123,7.007-1.071,10.429-2.02c12.288,12.174,21.152,28.121,23.826,45.301c1.384,8.59,1.185,17.711-2.219,25.836
		c-2.939,7.206-8.476,13.255-15.322,16.933c-13.795,7.632-29.648,10.41-45.149,11.984c-7.187,0.18-14.117-1.953-20.83-4.257
		c-12.695-4.2-24.205-11.264-34.986-19.038c-7.67-5.499-12.733-13.7-17.076-21.883c-4.475-8.562-7.035-18.526-4.978-28.131
		C435.564,1526.738,444.04,1517.077,453.218,1509.435z"/>
	<path fill="#993300" stroke="#993300" stroke-width="0.5" d="M214.529,1513.398c8.353-2.56,16.943-4.304,25.618-5.395
		c0.057,0.578,0.18,1.735,0.237,2.304c-8.542,6.381-16.583,13.539-23.219,21.921c-9.946,12.695-15.066,29.382-12.629,45.453
		c1.327,10.657,5.888,20.479,10.097,30.245c-7.907,0.408-15.597-1.887-23.181-3.764c-8.58-2.512-16.895-5.992-24.613-10.486
		c-9.462-5.499-15.113-16.554-14.573-27.42c0.512-13.321,6.722-25.647,14.146-36.427c4.418-6.627,9.045-13.15,14.601-18.877
		C191.045,1517.21,203.569,1516.612,214.529,1513.398z"/>
</g>
</svg>
