<?xml version="1.0" encoding="UTF-8" standalone="no"?>
<!-- Created with Inkscape (http://www.inkscape.org/) -->

<svg
     xmlns:dc="http://purl.org/dc/elements/1.1/"
     xmlns:cc="http://creativecommons.org/ns#"
     xmlns:rdf="http://www.w3.org/1999/02/22-rdf-syntax-ns#"
     xmlns:svg="http://www.w3.org/2000/svg"
     xmlns="http://www.w3.org/2000/svg"
     xmlns:sodipodi="http://sodipodi.sourceforge.net/DTD/sodipodi-0.dtd"
     xmlns:inkscape="http://www.inkscape.org/namespaces/inkscape"
     width="495.95715"
     height="795.36926"
     id="svg4095"
     version="1.1"
     inkscape:version="0.48.5 r10040"
     sodipodi:docname="friendly-robot-in-yellow.svg">
    <defs
         id="defs4097" />
    <sodipodi:namedview
         id="base"
         pagecolor="#ffffff"
         bordercolor="#666666"
         borderopacity="1.0"
         inkscape:pageopacity="0.0"
         inkscape:pageshadow="2"
         inkscape:zoom="0.88"
         inkscape:cx="312.56585"
         inkscape:cy="342.82286"
         inkscape:document-units="px"
         inkscape:current-layer="layer1"
         showgrid="false"
         fit-margin-top="0"
         fit-margin-left="0"
         fit-margin-right="0"
         fit-margin-bottom="0" />
    <metadata
         id="metadata4100">
        <rdf:RDF>
            <cc:Work
                 rdf:about="">
                <dc:format>image/svg+xml</dc:format>
                <dc:type
                     rdf:resource="http://purl.org/dc/dcmitype/StillImage" />
                <dc:title />
            </cc:Work>
        </rdf:RDF>
    </metadata>
    <g
         inkscape:label="Layer 1"
         inkscape:groupmode="layer"
         id="layer1"
         transform="translate(-117.73571,-137.53468)">
        <g
             id="g3150">
            <g
                 id="g3093">
                <path
                     style="fill:none;stroke:#8a8f86;stroke-width:16;stroke-linecap:round;stroke-linejoin:round;stroke-miterlimit:4;stroke-opacity:1;stroke-dasharray:none"
                     d="M 238.17005,595.0092 C 199.92385,556.75208 104.30831,645.22168 176.01995,714.56274"
                     id="path6506-0-1-2-0"
                     inkscape:connector-curvature="0"
                     sodipodi:nodetypes="cc" />
                <path
                     transform="matrix(-0.28084912,0.47780698,0.47726064,0.2809138,-412.91951,-254.28868)"
                     d="M 807.45001,1853 A 61.25,57.5 0 1 1 684.95001,1853 61.25,57.5 0 1 1 807.45001,1853 z"
                     sodipodi:ry="57.5"
                     sodipodi:rx="61.25"
                     sodipodi:cy="1853"
                     sodipodi:cx="746.20001"
                     id="path6478-7-2-3-3"
                     style="fill:#e5e1d1;fill-opacity:1;fill-rule:evenodd;stroke:#000000;stroke-width:7.22001839;stroke-linecap:round;stroke-linejoin:round;stroke-miterlimit:4;stroke-opacity:1;stroke-dasharray:none;stroke-dashoffset:5"
                     sodipodi:type="arc" />
                <g
                     id="g4247">
                    <rect
                         ry="55.08651"
                         rx="46.397034"
                         y="684.22247"
                         x="302.45389"
                         height="248.68147"
                         width="125.4804"
                         id="rect3886-2-4-2-7-6-7-3-3-3-2-2-8-9-6-2-8-9-9-0"
                         style="fill:#5d5d5d;fill-opacity:1;fill-rule:evenodd;stroke:none" />
                    <g
                         style="fill:#6f6f6f;fill-opacity:1"
                         transform="matrix(1.024651,0,0,0.79265665,-953.28296,493.21647)"
                         id="g4037">
                        <path
                             style="fill:#6f6f6f;fill-opacity:1;stroke:none"
                             d="M 1239.855,429.40684 1239.855,437.35722 1250.4041,441.76831 1250.4041,441.79039 1250.431,441.77935 1250.4568,441.79039 1250.4568,441.76831 1261.0059,437.35722 1261.0059,429.40684 1250.431,433.83055 1239.855,429.40684 z"
                             id="rect3840"
                             inkscape:connector-curvature="0" />
                        <path
                             id="use3847"
                             d="M 1263.5367,429.40684 1263.5367,437.35722 1274.0858,441.76831 1274.0858,441.79039 1274.1127,441.77935 1274.1385,441.79039 1274.1385,441.76831 1284.6876,437.35722 1284.6876,429.40684 1274.1127,433.83055 1263.5367,429.40684 z"
                             style="fill:#6f6f6f;fill-opacity:1;stroke:none"
                             inkscape:connector-curvature="0" />
                        <path
                             id="use3851"
                             d="M 1287.2184,429.40684 1287.2184,437.35722 1297.7675,441.76831 1297.7675,441.79039 1297.7944,441.77935 1297.8202,441.79039 1297.8202,441.76831 1308.3693,437.35722 1308.3693,429.40684 1297.7944,433.83055 1287.2184,429.40684 z"
                             style="fill:#6f6f6f;fill-opacity:1;stroke:none"
                             inkscape:connector-curvature="0" />
                        <path
                             inkscape:connector-curvature="0"
                             style="fill:#6f6f6f;fill-opacity:1;stroke:none"
                             d="M 1310.9001,429.40684 1310.9001,437.35722 1321.4492,441.76831 1321.4492,441.79039 1321.4761,441.77935 1321.5019,441.79039 1321.5019,441.76831 1332.051,437.35722 1332.051,429.40684 1321.4761,433.83055 1310.9001,429.40684 z"
                             id="use3853" />
                        <path
                             inkscape:connector-curvature="0"
                             id="use3859"
                             d="M 1239.855,442.01898 1239.855,449.96936 1250.4041,454.38046 1250.4041,454.40253 1250.431,454.39149 1250.4568,454.40253 1250.4568,454.38046 1261.0059,449.96936 1261.0059,442.01898 1250.431,446.44269 1239.855,442.01898 z"
                             style="fill:#6f6f6f;fill-opacity:1;stroke:none" />
                        <path
                             inkscape:connector-curvature="0"
                             style="fill:#6f6f6f;fill-opacity:1;stroke:none"
                             d="M 1263.5367,442.01898 1263.5367,449.96936 1274.0858,454.38046 1274.0858,454.40253 1274.1127,454.39149 1274.1385,454.40253 1274.1385,454.38046 1284.6876,449.96936 1284.6876,442.01898 1274.1127,446.44269 1263.5367,442.01898 z"
                             id="use3861" />
                        <path
                             inkscape:connector-curvature="0"
                             style="fill:#6f6f6f;fill-opacity:1;stroke:none"
                             d="M 1287.2184,442.01898 1287.2184,449.96936 1297.7675,454.38046 1297.7675,454.40253 1297.7944,454.39149 1297.8202,454.40253 1297.8202,454.38046 1308.3693,449.96936 1308.3693,442.01898 1297.7944,446.44269 1287.2184,442.01898 z"
                             id="use3863" />
                        <path
                             id="use3865"
                             d="M 1310.9001,442.01898 1310.9001,449.96936 1321.4492,454.38046 1321.4492,454.40253 1321.4761,454.39149 1321.5019,454.40253 1321.5019,454.38046 1332.051,449.96936 1332.051,442.01898 1321.4761,446.44269 1310.9001,442.01898 z"
                             style="fill:#6f6f6f;fill-opacity:1;stroke:none"
                             inkscape:connector-curvature="0" />
                        <path
                             inkscape:connector-curvature="0"
                             id="use3875"
                             d="M 1239.855,454.63112 1239.855,462.5815 1250.4041,466.9926 1250.4041,467.01467 1250.431,467.00363 1250.4568,467.01467 1250.4568,466.9926 1261.0059,462.5815 1261.0059,454.63112 1250.431,459.05483 1239.855,454.63112 z"
                             style="fill:#6f6f6f;fill-opacity:1;stroke:none" />
                        <path
                             inkscape:connector-curvature="0"
                             style="fill:#6f6f6f;fill-opacity:1;stroke:none"
                             d="M 1263.5367,454.63112 1263.5367,462.5815 1274.0858,466.9926 1274.0858,467.01467 1274.1127,467.00363 1274.1385,467.01467 1274.1385,466.9926 1284.6876,462.5815 1284.6876,454.63112 1274.1127,459.05483 1263.5367,454.63112 z"
                             id="use3877" />
                        <path
                             inkscape:connector-curvature="0"
                             style="fill:#6f6f6f;fill-opacity:1;stroke:none"
                             d="M 1287.2184,454.63112 1287.2184,462.5815 1297.7675,466.9926 1297.7675,467.01467 1297.7944,467.00363 1297.8202,467.01467 1297.8202,466.9926 1308.3693,462.5815 1308.3693,454.63112 1297.7944,459.05483 1287.2184,454.63112 z"
                             id="use3879" />
                        <path
                             id="use3881"
                             d="M 1310.9001,454.63112 1310.9001,462.5815 1321.4492,466.9926 1321.4492,467.01467 1321.4761,467.00363 1321.5019,467.01467 1321.5019,466.9926 1332.051,462.5815 1332.051,454.63112 1321.4761,459.05483 1310.9001,454.63112 z"
                             style="fill:#6f6f6f;fill-opacity:1;stroke:none"
                             inkscape:connector-curvature="0" />
                        <path
                             style="fill:#6f6f6f;fill-opacity:1;stroke:none"
                             d="M 1239.855,466.23429 1239.855,474.18467 1250.4041,478.59577 1250.4041,478.61784 1250.431,478.6068 1250.4568,478.61784 1250.4568,478.59577 1261.0059,474.18467 1261.0059,466.23429 1250.431,470.658 1239.855,466.23429 z"
                             id="use3883"
                             inkscape:connector-curvature="0" />
                        <path
                             id="use3885"
                             d="M 1263.5367,466.23429 1263.5367,474.18467 1274.0858,478.59577 1274.0858,478.61784 1274.1127,478.6068 1274.1385,478.61784 1274.1385,478.59577 1284.6876,474.18467 1284.6876,466.23429 1274.1127,470.658 1263.5367,466.23429 z"
                             style="fill:#6f6f6f;fill-opacity:1;stroke:none"
                             inkscape:connector-curvature="0" />
                        <path
                             id="use3887"
                             d="M 1287.2184,466.23429 1287.2184,474.18467 1297.7675,478.59577 1297.7675,478.61784 1297.7944,478.6068 1297.8202,478.61784 1297.8202,478.59577 1308.3693,474.18467 1308.3693,466.23429 1297.7944,470.658 1287.2184,466.23429 z"
                             style="fill:#6f6f6f;fill-opacity:1;stroke:none"
                             inkscape:connector-curvature="0" />
                        <path
                             inkscape:connector-curvature="0"
                             style="fill:#6f6f6f;fill-opacity:1;stroke:none"
                             d="M 1310.9001,466.23429 1310.9001,474.18467 1321.4492,478.59577 1321.4492,478.61784 1321.4761,478.6068 1321.5019,478.61784 1321.5019,478.59577 1332.051,474.18467 1332.051,466.23429 1321.4761,470.658 1310.9001,466.23429 z"
                             id="use3889" />
                        <path
                             inkscape:connector-curvature="0"
                             id="use3907"
                             d="M 1239.855,477.83746 1239.855,485.78785 1250.4041,490.19894 1250.4041,490.22101 1250.431,490.20998 1250.4568,490.22101 1250.4568,490.19894 1261.0059,485.78785 1261.0059,477.83746 1250.431,482.26117 1239.855,477.83746 z"
                             style="fill:#6f6f6f;fill-opacity:1;stroke:none" />
                        <path
                             inkscape:connector-curvature="0"
                             style="fill:#6f6f6f;fill-opacity:1;stroke:none"
                             d="M 1263.5367,477.83746 1263.5367,485.78785 1274.0858,490.19894 1274.0858,490.22101 1274.1127,490.20998 1274.1385,490.22101 1274.1385,490.19894 1284.6876,485.78785 1284.6876,477.83746 1274.1127,482.26117 1263.5367,477.83746 z"
                             id="use3909" />
                        <path
                             inkscape:connector-curvature="0"
                             style="fill:#6f6f6f;fill-opacity:1;stroke:none"
                             d="M 1287.2184,477.83746 1287.2184,485.78785 1297.7675,490.19894 1297.7675,490.22101 1297.7944,490.20998 1297.8202,490.22101 1297.8202,490.19894 1308.3693,485.78785 1308.3693,477.83746 1297.7944,482.26117 1287.2184,477.83746 z"
                             id="use3911" />
                        <path
                             id="use3913"
                             d="M 1310.9001,477.83746 1310.9001,485.78785 1321.4492,490.19894 1321.4492,490.22101 1321.4761,490.20998 1321.5019,490.22101 1321.5019,490.19894 1332.051,485.78785 1332.051,477.83746 1321.4761,482.26117 1310.9001,477.83746 z"
                             style="fill:#6f6f6f;fill-opacity:1;stroke:none"
                             inkscape:connector-curvature="0" />
                        <path
                             style="fill:#6f6f6f;fill-opacity:1;stroke:none"
                             d="M 1239.855,490.44961 1239.855,498.39999 1250.4041,502.81108 1250.4041,502.83316 1250.431,502.82212 1250.4568,502.83316 1250.4568,502.81108 1261.0059,498.39999 1261.0059,490.44961 1250.431,494.87332 1239.855,490.44961 z"
                             id="use3915"
                             inkscape:connector-curvature="0" />
                        <path
                             id="use3917"
                             d="M 1263.5367,490.44961 1263.5367,498.39999 1274.0858,502.81108 1274.0858,502.83316 1274.1127,502.82212 1274.1385,502.83316 1274.1385,502.81108 1284.6876,498.39999 1284.6876,490.44961 1274.1127,494.87332 1263.5367,490.44961 z"
                             style="fill:#6f6f6f;fill-opacity:1;stroke:none"
                             inkscape:connector-curvature="0" />
                        <path
                             id="use3919"
                             d="M 1287.2184,490.44961 1287.2184,498.39999 1297.7675,502.81108 1297.7675,502.83316 1297.7944,502.82212 1297.8202,502.83316 1297.8202,502.81108 1308.3693,498.39999 1308.3693,490.44961 1297.7944,494.87332 1287.2184,490.44961 z"
                             style="fill:#6f6f6f;fill-opacity:1;stroke:none"
                             inkscape:connector-curvature="0" />
                        <path
                             inkscape:connector-curvature="0"
                             style="fill:#6f6f6f;fill-opacity:1;stroke:none"
                             d="M 1310.9001,490.44961 1310.9001,498.39999 1321.4492,502.81108 1321.4492,502.83316 1321.4761,502.82212 1321.5019,502.83316 1321.5019,502.81108 1332.051,498.39999 1332.051,490.44961 1321.4761,494.87332 1310.9001,490.44961 z"
                             id="use3921" />
                        <path
                             style="fill:#6f6f6f;fill-opacity:1;stroke:none"
                             d="M 1239.855,503.06175 1239.855,511.01213 1250.4041,515.42323 1250.4041,515.4453 1250.431,515.43426 1250.4568,515.4453 1250.4568,515.42323 1261.0059,511.01213 1261.0059,503.06175 1250.431,507.48546 1239.855,503.06175 z"
                             id="use3923"
                             inkscape:connector-curvature="0" />
                        <path
                             id="use3925"
                             d="M 1263.5367,503.06175 1263.5367,511.01213 1274.0858,515.42323 1274.0858,515.4453 1274.1127,515.43426 1274.1385,515.4453 1274.1385,515.42323 1284.6876,511.01213 1284.6876,503.06175 1274.1127,507.48546 1263.5367,503.06175 z"
                             style="fill:#6f6f6f;fill-opacity:1;stroke:none"
                             inkscape:connector-curvature="0" />
                        <path
                             id="use3927"
                             d="M 1287.2184,503.06175 1287.2184,511.01213 1297.7675,515.42323 1297.7675,515.4453 1297.7944,515.43426 1297.8202,515.4453 1297.8202,515.42323 1308.3693,511.01213 1308.3693,503.06175 1297.7944,507.48546 1287.2184,503.06175 z"
                             style="fill:#6f6f6f;fill-opacity:1;stroke:none"
                             inkscape:connector-curvature="0" />
                        <path
                             inkscape:connector-curvature="0"
                             style="fill:#6f6f6f;fill-opacity:1;stroke:none"
                             d="M 1310.9001,503.06175 1310.9001,511.01213 1321.4492,515.42323 1321.4492,515.4453 1321.4761,515.43426 1321.5019,515.4453 1321.5019,515.42323 1332.051,511.01213 1332.051,503.06175 1321.4761,507.48546 1310.9001,503.06175 z"
                             id="use3929" />
                        <path
                             inkscape:connector-curvature="0"
                             style="fill:#6f6f6f;fill-opacity:1;stroke:none"
                             d="M 1263.5367,515.67389 1263.5367,523.62427 1274.0858,528.03537 1274.0858,528.05744 1274.1127,528.0464 1274.1385,528.05744 1274.1385,528.03537 1284.6876,523.62427 1284.6876,515.67389 1274.1127,520.0976 1263.5367,515.67389 z"
                             id="use3933" />
                        <path
                             inkscape:connector-curvature="0"
                             style="fill:#6f6f6f;fill-opacity:1;stroke:none"
                             d="M 1287.2184,515.67389 1287.2184,523.62427 1297.7675,528.03537 1297.7675,528.05744 1297.7944,528.0464 1297.8202,528.05744 1297.8202,528.03537 1308.3693,523.62427 1308.3693,515.67389 1297.7944,520.0976 1287.2184,515.67389 z"
                             id="use3935" />
                    </g>
                </g>
                <path
                     sodipodi:nodetypes="cc"
                     inkscape:connector-curvature="0"
                     id="use4200"
                     d="M 495.16665,599.0092 C 533.41285,560.75208 629.02845,649.22168 557.31685,718.56274"
                     style="fill:none;stroke:#8a8f86;stroke-width:16;stroke-linecap:round;stroke-linejoin:round;stroke-miterlimit:4;stroke-opacity:1;stroke-dasharray:none" />
                <path
                     sodipodi:type="arc"
                     style="fill:#e5e1d1;fill-opacity:1;fill-rule:evenodd;stroke:#000000;stroke-width:7.22001839;stroke-linecap:round;stroke-linejoin:round;stroke-miterlimit:4;stroke-opacity:1;stroke-dasharray:none;stroke-dashoffset:5"
                     id="use4202"
                     sodipodi:cx="746.20001"
                     sodipodi:cy="1853"
                     sodipodi:rx="61.25"
                     sodipodi:ry="57.5"
                     d="M 807.45001,1853 A 61.25,57.5 0 1 1 684.95001,1853 61.25,57.5 0 1 1 807.45001,1853 z"
                     transform="matrix(0.28084912,0.47780698,-0.47726064,0.2809138,1146.2562,-254.28868)" />
                <path
                     sodipodi:type="star"
                     style="fill:#e4cf7d;fill-opacity:1;fill-rule:evenodd;stroke:#000000;stroke-width:6.28519154;stroke-linecap:round;stroke-linejoin:round;stroke-miterlimit:4;stroke-opacity:1;stroke-dasharray:none"
                     id="path3884-5-0-4-9-3-4-1-1-1-8-4-94-0-8-5-6-2-2-6"
                     sodipodi:sides="3"
                     sodipodi:cx="-3070"
                     sodipodi:cy="-1073"
                     sodipodi:r1="342.29999"
                     sodipodi:r2="171.10001"
                     sodipodi:arg1="1.542"
                     sodipodi:arg2="2.589"
                     inkscape:flatsided="true"
                     inkscape:rounded="0.16"
                     inkscape:randomized="0"
                     d="M -3060.1444,-730.84192 C -3154.966,-728.11066 -3416.2909,-1152.0602 -3371.2454,-1235.5438 -3326.1999,-1319.0274 -2828.3864,-1333.3666 -2778.6102,-1252.6143 -2728.8341,-1171.862 -2965.3228,-733.57319 -3060.1444,-730.84192 z"
                     inkscape:transform-center-x="6.3172791"
                     inkscape:transform-center-y="-73.558891"
                     transform="matrix(0.68684534,0,0,-0.58969034,2475.2266,96.0333)" />
                <rect
                     id="rect6486-6-2-2-3"
                     style="fill:#e4cf7d;fill-opacity:1;fill-rule:evenodd;stroke:#000000;stroke-width:4;stroke-linecap:round;stroke-linejoin:round;stroke-miterlimit:4;stroke-opacity:1;stroke-dasharray:none;stroke-dashoffset:5"
                     rx="216.20515"
                     ry="170.5912"
                     height="355.58884"
                     width="492.95715"
                     y="241.62192"
                     x="119.23571" />
                <path
                     style="opacity:0.1;fill:#000000;fill-opacity:1;fill-rule:evenodd;stroke:none"
                     d="M 608.31476,391.3511 C 607.29642,436.70702 584.84592,480.23733 550.03238,509.19643 499.34426,553.275 429.3813,570.41235 362.80231,567.19485 311.26854,568.87514 257.63302,566.47192 210.40417,544.15692 184.0262,532.45267 159.64921,515.90348 140.05762,494.8511 166.03917,545.93365 219.37189,578.62532 274.35664,591.81086 317.62544,602.09239 362.79455,599.3062 407.00907,598.7063 462.20065,598.14874 517.92675,579.3454 559.39567,543.13235 587.71229,518.32618 608.38481,483.4533 611.50857,445.69485 613.47062,427.23568 612.26058,408.51819 608.31476,390.50735 L 608.31476,391.3511 z"
                     id="rect6486-6-2-2-3-4"
                     inkscape:connector-curvature="0" />
                <path
                     sodipodi:type="arc"
                     style="opacity:0.1;fill:#000000;fill-opacity:1;stroke:none"
                     id="path4212"
                     sodipodi:cx="1056.1111"
                     sodipodi:cy="80"
                     sodipodi:rx="27.222221"
                     sodipodi:ry="11.111111"
                     d="M 1083.3333,80 A 27.222221,11.111111 0 1 1 1028.8889,80 27.222221,11.111111 0 1 1 1083.3333,80 z"
                     transform="matrix(1.6246754,0,0,1.6,-1346.5349,127.8027)" />
                <path
                     d="M 363.64205,162.89814 C 359.77305,163.16422 357.93065,216.58992 332.11585,245.46314 329.00425,247.30598 327.50965,249.61998 327.50965,251.93396 327.50965,259.42872 343.74365,265.3469 364.15405,265.3469 384.54365,265.3469 401.10525,259.42872 401.10525,251.93396 401.10525,249.88624 399.52885,247.5518 396.70385,245.77016 368.80085,216.32364 369.08765,163.6763 363.64205,162.89814 z"
                     inkscape:connector-curvature="0"
                     style="fill:#e5e1d1;fill-opacity:1;stroke:#000000;stroke-width:4;stroke-miterlimit:4;stroke-opacity:1;stroke-dasharray:none"
                     id="path6488-2-8-8-2" />
                <path
                     d="M 393.05965,163.58716 C 393.05965,176.99992 380.42885,187.83242 365.21845,187.83242 349.70105,187.83242 337.27485,176.99992 337.27485,163.58716 337.27485,150.15394 349.70105,139.03468 365.21845,139.03468 380.42885,139.03468 393.05965,150.15394 393.05965,163.58716 z"
                     inkscape:connector-curvature="0"
                     style="fill:#e5e1d1;fill-opacity:1;fill-rule:evenodd;stroke:#000000;stroke-width:4;stroke-linecap:round;stroke-linejoin:round;stroke-miterlimit:4;stroke-opacity:1;stroke-dasharray:none;stroke-dashoffset:5"
                     id="path6490-9-9-9-0" />
                <rect
                     id="rect6492-1-7-7-6"
                     style="fill:#e5e1d1;fill-opacity:1;fill-rule:evenodd;stroke:none"
                     rx="52.856358"
                     ry="101.01064"
                     height="202.01991"
                     width="391.21451"
                     y="323.3475"
                     x="169.20616" />
                <path
                     inkscape:connector-curvature="0"
                     id="path6494-2-3-3-1"
                     d="M 222.25857,320.49552 C 206.14677,320.49552 192.11233,332.72864 182.27943,351.51974 172.44651,370.31088 166.50285,395.94508 166.50285,424.32784 166.50285,452.71062 172.44651,478.40468 182.27943,497.19582 192.11233,515.98676 206.14677,528.21986 222.25857,528.21986 L 507.73085,528.21986 C 523.84265,528.21986 537.87705,515.98676 547.71005,497.19582 557.54305,478.40468 563.48645,452.71062 563.48665,424.32784 563.48665,395.94508 557.54305,370.31088 547.71005,351.51974 537.87705,332.72864 523.84265,320.49552 507.73085,320.49552 L 222.25857,320.49552 z M 222.25857,326.23408 507.73085,326.23408 C 520.90145,326.23408 533.35585,336.48566 542.63045,354.2096 551.90485,371.93376 557.74945,396.75116 557.74965,424.32784 557.74965,451.90454 551.90485,476.78182 542.63045,494.50576 533.35585,512.22972 520.90145,522.4813 507.73085,522.4813 L 222.25857,522.4813 C 209.08811,522.4813 196.63361,512.22972 187.35889,494.50576 178.08439,476.78182 172.23979,451.90454 172.23979,424.32784 172.23979,396.75116 178.08439,371.93376 187.35889,354.2096 196.63361,336.48566 209.08811,326.23408 222.25857,326.23408 z"
                     style="font-size:medium;font-style:normal;font-variant:normal;font-weight:normal;font-stretch:normal;text-indent:0;text-align:start;text-decoration:none;line-height:normal;letter-spacing:normal;word-spacing:normal;text-transform:none;direction:ltr;block-progression:tb;writing-mode:lr-tb;text-anchor:start;baseline-shift:baseline;color:#000000;fill:#c5a936;fill-opacity:1;stroke:none;stroke-width:3;marker:none;visibility:visible;display:inline;overflow:visible;enable-background:accumulate;font-family:Sans;-inkscape-font-specification:Sans" />
                <path
                     style="font-size:medium;font-style:normal;font-variant:normal;font-weight:normal;font-stretch:normal;text-indent:0;text-align:start;text-decoration:none;line-height:normal;letter-spacing:normal;word-spacing:normal;text-transform:none;direction:ltr;block-progression:tb;writing-mode:lr-tb;text-anchor:start;baseline-shift:baseline;color:#000000;fill:#c5a936;fill-opacity:1;stroke:none;stroke-width:7.72181749;marker:none;visibility:visible;display:inline;overflow:visible;enable-background:accumulate;font-family:Sans;-inkscape-font-specification:Sans"
                     d="M 226.39196,664.59718 C 224.73698,666.94698 223.07709,669.26979 221.45446,671.62843 221.76554,672.13919 222.07314,672.67475 222.42321,673.15968 224.78731,676.43456 227.98344,679.2796 231.95446,681.94093 239.89651,687.26357 250.96405,691.79551 264.48571,695.62843 291.52902,703.29427 328.50657,707.97218 369.39196,707.97218 410.27735,707.97218 447.28614,703.29427 474.32946,695.62843 487.85112,691.79551 498.85616,687.26357 506.79821,681.94093 509.48979,680.13706 511.85385,678.24139 513.82946,676.19093 512.38605,673.8094 510.92837,671.43891 509.45446,669.06593 507.91776,670.74503 505.84392,672.52639 503.26696,674.25343 496.3093,678.91636 485.79354,683.37803 472.67321,687.09718 446.43257,694.53549 409.81516,699.19093 369.39196,699.19093 328.96876,699.19093 292.35136,694.53549 266.11071,687.09718 252.99039,683.37803 242.47461,678.91636 235.51696,674.25343 232.03813,671.92197 229.48139,669.50565 227.92321,667.34718 227.20415,666.35109 226.72979,665.44347 226.39196,664.59718 z"
                     id="path3810"
                     inkscape:connector-curvature="0" />
                <path
                     id="path6504-6-3-1-5"
                     d="M 234.05075,771.49204 C 208.51529,789.84668 173.03217,784.46696 154.88205,759.18472 136.58813,733.92948 142.42525,698.4965 167.93261,679.9984 193.43997,661.49992 229.09501,666.99538 247.41647,692.3941 261.04435,711.24146 261.47673,736.66372 248.56691,756.30914 L 201.04945,725.65944 z"
                     style="fill:#e5e1d1;fill-opacity:1;stroke:#000000;stroke-width:4;stroke-linecap:round;stroke-linejoin:round;stroke-miterlimit:4;stroke-opacity:1;stroke-dasharray:none;stroke-dashoffset:0"
                     inkscape:connector-curvature="0" />
                <path
                     style="fill:#ffffff;fill-opacity:1;stroke:none"
                     d="M 338.99779,327.56058 252.71289,520.56058 335.52832,520.56058 421.81322,327.56058 338.99779,327.56058 z M 435.98525,327.56058 349.70023,520.56058 388.42787,520.56058 474.71289,327.56058 435.98525,327.56058 z"
                     id="rect3868-9-7"
                     inkscape:connector-curvature="0" />
                <g
                     id="g3972"
                     transform="translate(-35.480569,167.38235)">
                    <ellipse
                         transform="matrix(1.8333333,0,0,1.8333333,32.105605,3.4638944)"
                         d="M 162,126 C 162,129.31371 159.31371,132 156,132 152.68629,132 150,129.31371 150,126 150,122.68629 152.68629,120 156,120 159.31371,120 162,122.68629 162,126 z"
                         style="fill:#000000;stroke:none"
                         sodipodi:ry="6"
                         sodipodi:rx="6"
                         sodipodi:cy="126"
                         sodipodi:cx="156"
                         cx="156"
                         cy="126"
                         rx="6"
                         ry="6"
                         class="rightEye"
                         id="ellipse6-1-6" />
                    <ellipse
                         transform="matrix(1.8333333,0,0,1.8333333,34.772267,3.46389)"
                         d="M 250,126 C 250,129.31371 247.31371,132 244,132 240.68629,132 238,129.31371 238,126 238,122.68629 240.68629,120 244,120 247.31371,120 250,122.68629 250,126 z"
                         style="fill:#000000;stroke:none"
                         sodipodi:ry="6"
                         sodipodi:rx="6"
                         sodipodi:cy="126"
                         sodipodi:cx="244"
                         cx="244"
                         cy="126"
                         rx="6"
                         ry="6"
                         class="leftEye"
                         id="ellipse8-9-5" />
                </g>
                <path
                     id="path10-4-6"
                     class="mouth"
                     d="M 399.62505,419.18622 C 399.62505,441.94622 383.94505,460.40622 364.62505,460.40622 345.30505,460.40622 329.62505,441.94622 329.62505,419.18622 329.62505,418.76622 329.62505,418.34622 329.64505,417.92622 L 364.62505,419.18622 z"
                     inkscape:connector-curvature="0"
                     style="fill:#c38080;stroke:#000000;stroke-width:4;stroke-linecap:round;stroke-linejoin:round;stroke-miterlimit:4;stroke-dasharray:none" />
                <path
                     style="opacity:0.1;fill:#000000;fill-opacity:1;fill-rule:evenodd;stroke:none"
                     d="M 567.38205,809.90402 C 557.12465,829.8995 531.68205,833.16496 512.19445,838.34152 430.23045,852.88348 346.00005,850.80792 263.44449,842.34152 229.13125,838.04386 192.41739,832.50646 161.56949,818.46652 165.64979,834.9424 185.61143,839.0476 199.38199,844.21652 271.23199,863.49244 346.80805,865.58462 421.00445,864.35132 465.32745,861.84434 511.43665,861.02978 552.44445,843.77902 567.16805,839.10104 570.54305,822.54896 567.63205,809.21652 L 567.38205,809.90402 z"
                     id="path3884-5-0-4-9-3-4-1-1-1-8-4-94-0-8-5-6-2-7-8-3"
                     inkscape:connector-curvature="0" />
                <path
                     id="use3855-4-7"
                     style="fill:#ffffff;fill-opacity:1;fill-rule:evenodd;stroke:none"
                     inkscape:connector-curvature="0"
                     d="M 371.66345,150.37438 C 371.66345,154.65832 367.62925,158.11814 362.77125,158.11814 357.81505,158.11814 353.84625,154.65832 353.84625,150.37438 353.84625,146.08392 357.81505,142.53252 362.77125,142.53252 367.62925,142.53252 371.66345,146.08392 371.66345,150.37438 z" />
                <path
                     inkscape:connector-curvature="0"
                     style="fill:#e5e1d1;fill-opacity:1;stroke:#000000;stroke-width:4;stroke-linecap:round;stroke-linejoin:round;stroke-miterlimit:4;stroke-opacity:1;stroke-dasharray:none;stroke-dashoffset:0"
                     d="M 505.28605,775.49204 C 530.82145,793.84668 566.30445,788.46696 584.45465,763.18472 602.74865,737.92948 596.91145,702.4965 571.40405,683.9984 545.89665,665.49992 510.24165,670.99538 491.92025,696.3941 478.29245,715.24146 477.86005,740.66372 490.76985,760.30914 L 538.28725,729.65944 z"
                     id="use4204" />
            </g>
        </g>
    </g>
</svg>
