<?xml version="1.0" encoding="UTF-8" standalone="no"?>
<!-- Created with Inkscape (http://www.inkscape.org/) -->

<svg
   version="1.1"
   id="svg1"
   width="880"
   height="880"
   viewBox="0 0 880 880"
   sodipodi:docname="holiday-cabin-on-an-island.svg"
   inkscape:version="1.3.2 (091e20e, 2023-11-25, custom)"
   xmlns:inkscape="http://www.inkscape.org/namespaces/inkscape"
   xmlns:sodipodi="http://sodipodi.sourceforge.net/DTD/sodipodi-0.dtd"
   xmlns="http://www.w3.org/2000/svg"
   xmlns:svg="http://www.w3.org/2000/svg">
  <defs
     id="defs1" />
  <sodipodi:namedview
     id="namedview1"
     pagecolor="#ffffff"
     bordercolor="#000000"
     borderopacity="0.25"
     inkscape:showpageshadow="2"
     inkscape:pageopacity="0.0"
     inkscape:pagecheckerboard="0"
     inkscape:deskcolor="#d1d1d1"
     inkscape:zoom="0.69318182"
     inkscape:cx="439.27869"
     inkscape:cy="440"
     inkscape:window-width="1440"
     inkscape:window-height="830"
     inkscape:window-x="-6"
     inkscape:window-y="-6"
     inkscape:window-maximized="1"
     inkscape:current-layer="g1">
    <inkscape:page
       x="0"
       y="0"
       inkscape:label="1"
       id="page1"
       width="880"
       height="880"
       margin="0 0 0.66533333 1.3502667"
       bleed="0" />
  </sodipodi:namedview>
  <g
     id="g1"
     inkscape:groupmode="layer"
     inkscape:label="1">
    <g
       id="group-MC0">
      <path
         id="path2"
         d="M 1.012,0 H 659.999 V 659.501 H 1.012 Z"
         style="fill:#f2b66d;fill-opacity:1;fill-rule:nonzero;stroke:none"
         transform="matrix(1.3333333,0,0,-1.3333333,0,880)" />
      <path
         id="path3"
         d="M 0,0 507.548,40.125 V 57.799 Z"
         style="fill:#ffc782;fill-opacity:1;fill-rule:nonzero;stroke:none"
         transform="matrix(1.3333333,0,0,-1.3333333,203.2692,249.802)" />
      <path
         id="path4"
         d="m 0,0 185.777,172.992 79.362,-58.224 30.06,27.993 L 520.658,-59.905 53.509,-73.342 Z"
         style="fill:#e0a053;fill-opacity:1;fill-rule:evenodd;stroke:none"
         transform="matrix(1.3333333,0,0,-1.3333333,91.671867,454.89187)" />
      <path
         id="path5"
         d="M 0,0 -261.588,261.589 -310.717,212.46 V 0 Z"
         style="fill:#cc8b3b;fill-opacity:1;fill-rule:evenodd;stroke:none"
         transform="matrix(1.3333333,0,0,-1.3333333,415.64,579.9232)" />
      <path
         id="path6"
         d="m 0,0 -93.774,135.2 16.235,-91.254 -30.231,-19.035 -50.946,68.862 9.517,77.819 -39.75,-79.499 10.638,-45.907 -21.835,-5.039 V 0 Z"
         style="fill:#b57526;fill-opacity:1;fill-rule:evenodd;stroke:none"
         transform="matrix(1.3333333,0,0,-1.3333333,268.21093,579.9232)" />
      <path
         id="path7"
         d="M 1.012,0 H 659.999 V 225.059 H 1.012 Z"
         style="fill:#ffc37a;fill-opacity:1;fill-rule:nonzero;stroke:none"
         transform="matrix(1.3333333,0,0,-1.3333333,0,880)" />
      <path
         id="path8"
         d="m 0,0 -54.445,40.157 -170.468,-163.324 h 533.434 v 95.31 l -0.603,111.834 -111.97,111.969 z"
         style="fill:#75470e;fill-opacity:1;fill-rule:nonzero;stroke:none"
         transform="matrix(1.3333333,0,0,-1.3333333,468.6384,415.7008)" />
      <path
         id="path9"
         d="m 0,0 -31.91,35.831 -75.581,-53.186 -26.872,6.157 46.466,92.935 -105.25,-115.048 h 310.715 l -31.91,38.35 47.027,149.478 z m 249.133,0.559 -22.395,40.87 -24.072,-57.104 -85.098,-17.636 H 296.203 V 16.72 l -62.746,127.719 z"
         style="fill:#3b2306;fill-opacity:1;fill-rule:nonzero;stroke:none"
         transform="matrix(1.3333333,0,0,-1.3333333,485.0616,535.5088)" />
      <path
         id="path10"
         d="M 0,0 3.358,49.827 19.035,118.128 22.953,38.63 Z"
         style="fill:#3b2306;fill-opacity:1;fill-rule:evenodd;stroke:none"
         transform="matrix(1.3333333,0,0,-1.3333333,695.56387,377.25973)" />
      <path
         id="path11"
         d="M 0,0 V -53.745 L 658.987,24.44 v 11.23 z"
         style="fill:#ffc782;fill-opacity:1;fill-rule:nonzero;stroke:none"
         transform="matrix(1.3333333,0,0,-1.3333333,1.35,136.9012)" />
      <path
         id="path12"
         d="M 0,0 490.147,25.754 0,15.677 Z"
         style="fill:#ffc782;fill-opacity:1;fill-rule:evenodd;stroke:none"
         transform="matrix(1.3333333,0,0,-1.3333333,1.3502667,98.832)" />
      <path
         id="path13"
         d="m 0,0 v -8.68 l 79.223,-3.92 -43.669,-6.719 299.519,-7.837 -61.024,15.676 185.311,4.479 -21.836,-9.519 160.678,-5.037 -21.835,10.635 82.62,5.01 V 0 Z"
         style="fill:#ffdaad;fill-opacity:1;fill-rule:nonzero;stroke:none"
         transform="matrix(1.3333333,0,0,-1.3333333,1.35,579.9232)" />
      <path
         id="path14"
         d="m 0,0 -82.831,-22.195 -39.189,-39.189 h 387.974 50.948 135.52 v 49.728 H 365.048 L 295.627,-39.091 240.661,-26.773 213.887,0 Z"
         style="fill:#75470e;fill-opacity:1;fill-rule:nonzero;stroke:none"
         transform="matrix(1.3333333,0,0,-1.3333333,276.7704,666.274)" />
      <path
         id="path15"
         d="M 0,0 -61.024,8.959 -182.512,-7.739 H 353.299 V 11.877 L 312.394,21.276 234.574,-1.118 144.439,4.48 77.258,27.434 Z"
         style="fill:#3b2306;fill-opacity:1;fill-rule:nonzero;stroke:none"
         transform="matrix(1.3333333,0,0,-1.3333333,408.9336,737.8012)" />
      <path
         id="path16"
         d="M 0,0 V 0 L 28.069,-28.069 V -84.5 h -56.137 v 56.431 z"
         style="fill:#d65311;fill-opacity:1;fill-rule:evenodd;stroke:none"
         transform="matrix(1.3333333,0,0,-1.3333333,347.44987,553.6068)" />
      <path
         id="path17"
         d="m 288.656,160.293 h 104.105 v 56.433 H 288.656 Z"
         style="fill:#8c3307;fill-opacity:1;fill-rule:evenodd;stroke:none"
         transform="matrix(1.3333333,0,0,-1.3333333,0,880)" />
      <path
         id="path18"
         d="M 0,0 28.068,-28.069 H -76.037 L -104.106,0 Z"
         style="fill:#ffffff;fill-opacity:1;fill-rule:evenodd;stroke:none"
         transform="matrix(1.3333333,0,0,-1.3333333,486.25787,553.6068)" />
      <path
         id="path19"
         d="m 269.263,176.604 h -17.35 v 15.799 h 17.35 z m -17.35,26.024 h 17.35 v -7.846 h -17.35 z"
         style="fill:#61290d;fill-opacity:1;fill-rule:evenodd;stroke:none"
         transform="matrix(1.3333333,0,0,-1.3333333,0,880)" />
      <path
         id="path20"
         d="m 331.864,176.604 h -17.35 v 15.799 h 17.35 z m -17.349,26.024 h 17.35 v -7.846 h -17.35 z"
         style="fill:#f5a40e;fill-opacity:1;fill-rule:evenodd;stroke:none"
         transform="matrix(1.3333333,0,0,-1.3333333,0,880)" />
      <path
         id="path21"
         d="m 370.987,176.604 h -17.349 v 15.799 h 17.349 z m -17.348,26.024 h 17.349 v -7.846 h -17.349 z"
         style="fill:#331100;fill-opacity:1;fill-rule:evenodd;stroke:none"
         transform="matrix(1.3333333,0,0,-1.3333333,0,880)" />
      <path
         id="path22"
         d="m 0,0 h -50.948 -349.343 -38.631 l 39.189,-19.915 82.831,-11.279 h 24.941 v -28.678 l 28.069,-14.264 h 104.106 l 28.068,14.264 v 28.678 h 28.703 l 26.774,13.606 54.966,6.26 69.421,-13.941 H 135.52 V 0 Z"
         style="fill:#e69f47;fill-opacity:1;fill-rule:nonzero;stroke:none"
         transform="matrix(1.3333333,0,0,-1.3333333,699.306,748.12)" />
    </g>
  </g>
</svg>
