<?xml version="1.0" standalone="no"?><!-- Generator: Gravit.io --><svg xmlns="http://www.w3.org/2000/svg" xmlns:xlink="http://www.w3.org/1999/xlink" style="isolation:isolate" viewBox="0 0 200 200" width="200" height="200"><defs><clipPath id="_clipPath_tU8Yjmhq9YdHNkyDrGohstnch2JWXosW"><rect width="200" height="200"/></clipPath></defs><g clip-path="url(#_clipPath_tU8Yjmhq9YdHNkyDrGohstnch2JWXosW)"><g id="Group"><path d="M 97.557 88.121 L 97.557 88.121 C 121.213 88.121 140.419 107.327 140.419 130.984 L 140.419 157.137 C 140.419 180.794 121.213 200 97.557 200 L 97.557 200 C 73.9 200 54.694 180.794 54.694 157.137 L 54.694 130.984 C 54.694 107.327 73.9 88.121 97.557 88.121 Z" style="stroke:none;fill:#C3C3C3;stroke-miterlimit:10;"/><path d=" M 171.867 138.975 C 171.898 138.657 171.9 138.332 171.9 138.007 L 171.9 78.919 C 171.9 39.091 139.565 6.755 99.736 6.755 L 99.736 6.755 C 59.908 6.755 27.572 39.091 27.572 78.919 L 27.572 138.007 C 27.572 138.332 27.574 138.657 27.605 138.975 L 171.867 138.975 Z " fill="rgb(195,195,195)"/><path d=" M 47.247 84.107 C 47.247 78.559 51.752 74.055 57.3 74.055 C 62.848 74.055 67.353 78.559 67.353 84.107 C 67.353 89.655 62.848 94.16 57.3 94.16 C 51.752 94.16 47.247 89.655 47.247 84.107 Z " fill="rgb(195,70,70)"/><path d=" M 131.02 84.107 C 131.02 78.559 135.524 74.055 141.072 74.055 C 146.62 74.055 151.125 78.559 151.125 84.107 C 151.125 89.655 146.62 94.16 141.072 94.16 C 135.524 94.16 131.02 89.655 131.02 84.107 Z " fill="rgb(195,70,70)"/><rect x="54.75" y="151.531" width="85.639" height="2.011" transform="matrix(1,0,0,1,0,0)" fill="rgb(34,34,34)"/><rect x="60.393" y="149.912" width="1" height="5.25" transform="matrix(1,0,0,1,0,0)" fill="rgb(34,34,34)"/><rect x="99.891" y="149.912" width="1" height="5.25" transform="matrix(1,0,0,1,0,0)" fill="rgb(34,34,34)"/><rect x="66.035" y="149.912" width="1" height="5.25" transform="matrix(1,0,0,1,0,0)" fill="rgb(34,34,34)"/><rect x="71.678" y="149.912" width="1" height="5.25" transform="matrix(1,0,0,1,0,0)" fill="rgb(34,34,34)"/><rect x="77.32" y="149.912" width="1" height="5.25" transform="matrix(1,0,0,1,0,0)" fill="rgb(34,34,34)"/><rect x="82.963" y="149.912" width="1" height="5.25" transform="matrix(1,0,0,1,0,0)" fill="rgb(34,34,34)"/><rect x="88.606" y="149.912" width="1" height="5.25" transform="matrix(1,0,0,1,0,0)" fill="rgb(34,34,34)"/><rect x="94.248" y="149.912" width="1" height="5.25" transform="matrix(1,0,0,1,0,0)" fill="rgb(34,34,34)"/><rect x="54.75" y="149.912" width="1" height="5.25" transform="matrix(1,0,0,1,0,0)" fill="rgb(34,34,34)"/><rect x="105.534" y="149.912" width="1" height="5.25" transform="matrix(1,0,0,1,0,0)" fill="rgb(34,34,34)"/><rect x="111.176" y="149.912" width="1" height="5.25" transform="matrix(1,0,0,1,0,0)" fill="rgb(34,34,34)"/><rect x="139.389" y="149.912" width="1" height="5.25" transform="matrix(1,0,0,1,0,0)" fill="rgb(34,34,34)"/><rect x="122.461" y="149.912" width="1" height="5.25" transform="matrix(1,0,0,1,0,0)" fill="rgb(34,34,34)"/><rect x="128.104" y="149.912" width="1" height="5.25" transform="matrix(1,0,0,1,0,0)" fill="rgb(34,34,34)"/><rect x="116.819" y="149.912" width="1" height="5.25" transform="matrix(1,0,0,1,0,0)" fill="rgb(34,34,34)"/><rect x="133.747" y="149.912" width="1" height="5.25" transform="matrix(1,0,0,1,0,0)" fill="rgb(34,34,34)"/></g></g></svg>